G04*
G04 #@! TF.GenerationSoftware,Altium Limited,Altium Designer,23.8.1 (32)*
G04*
G04 Layer_Color=16777215*
%FSLAX44Y44*%
%MOMM*%
G71*
G04*
G04 #@! TF.SameCoordinates,A6862DCD-3B86-4064-B5AB-42711134FE70*
G04*
G04*
G04 #@! TF.FilePolarity,Positive*
G04*
G01*
G75*
%ADD13C,0.1000*%
%ADD14C,0.2000*%
G36*
X36926Y94607D02*
Y94591D01*
X36934Y90162D01*
X36918Y90100D01*
X36888Y90069D01*
X36880Y95208D01*
X36918Y95215D01*
X36926Y94607D01*
D02*
G37*
G36*
X64498Y94476D02*
X64536Y94437D01*
X64552Y94375D01*
X64536Y57243D01*
X64498Y57205D01*
X64436Y57189D01*
X64244Y57197D01*
X37920Y57189D01*
X37874Y57205D01*
X37827Y57189D01*
X37658Y57205D01*
X37620Y57243D01*
X37604Y57305D01*
X37620Y58892D01*
X37635Y83251D01*
Y83267D01*
X37650Y84299D01*
X37658Y89114D01*
X37650Y89137D01*
X37666Y89183D01*
X37658Y93813D01*
X37673Y94198D01*
X37681Y94206D01*
X37666Y94252D01*
X37681Y94422D01*
X37720Y94460D01*
X37843Y94491D01*
X64498Y94476D01*
D02*
G37*
G36*
X104333Y27794D02*
X104186Y26760D01*
X103521Y26096D01*
X102635Y26243D01*
X102414Y26465D01*
X102266Y27055D01*
X102414Y27646D01*
X102487Y27720D01*
X102561Y27794D01*
X102930Y28163D01*
X103669Y28310D01*
X104333Y27794D01*
D02*
G37*
G36*
X162880Y83978D02*
X163618Y83682D01*
X164578Y83313D01*
X165390Y83092D01*
X166350Y82723D01*
X167900Y81615D01*
X168712Y81394D01*
X169451Y81098D01*
X169672Y80877D01*
X169967Y80729D01*
X171001Y80286D01*
X172182Y79991D01*
X173438Y79770D01*
X174914Y79474D01*
X176095Y79327D01*
X177572Y79179D01*
X179344Y78884D01*
X180156Y78367D01*
X180230Y77555D01*
X179565Y76890D01*
X178606Y76521D01*
X178384Y76300D01*
X177350Y76004D01*
X176317Y75856D01*
X174028Y75487D01*
X173438Y75340D01*
X172699Y75044D01*
X172256Y74749D01*
X171518Y73420D01*
X170632Y72829D01*
X170337Y72091D01*
X170706Y71574D01*
X171739Y71427D01*
X177203Y71279D01*
X177646Y71131D01*
X178236Y70984D01*
X180082Y70024D01*
X180378Y69286D01*
X180230Y68695D01*
X179861Y68326D01*
X179196Y68252D01*
X177646Y68326D01*
X176612Y67588D01*
X175578Y66997D01*
X175209Y66628D01*
X175062Y66333D01*
X174102Y65077D01*
X173659Y64930D01*
X173290Y65151D01*
X172994Y66185D01*
X172847Y66923D01*
X172035Y67735D01*
X171739Y67883D01*
X171001Y68178D01*
X170484Y67957D01*
X170337Y67661D01*
X169598Y66037D01*
X169229Y65077D01*
X169008Y64856D01*
X168934Y64634D01*
X168639Y64487D01*
X167605Y64044D01*
X165538Y64191D01*
X165095Y64339D01*
X164135Y64708D01*
X163618Y65077D01*
X162880Y65816D01*
X162585Y65963D01*
X161551Y66554D01*
X160517Y66997D01*
X159484Y67145D01*
X157859Y66997D01*
X157343Y66628D01*
X157047Y65890D01*
X157195Y65004D01*
X157564Y64634D01*
X158302Y64339D01*
X160222Y64191D01*
X161403Y64044D01*
X162068Y63527D01*
X161920Y62493D01*
X161551Y61977D01*
X160813Y61681D01*
X159115Y61312D01*
X158302Y61091D01*
X155940Y60500D01*
X153873Y60352D01*
X153430Y60500D01*
X151436Y60426D01*
X149000Y60500D01*
X148557Y60352D01*
X147007Y60131D01*
X146047Y59762D01*
X145161Y59171D01*
X144127Y58876D01*
X141026Y59023D01*
X140583Y59171D01*
X139771Y59393D01*
X138221Y60057D01*
X137187Y60205D01*
X136597Y60352D01*
X135194Y60574D01*
X134234Y60648D01*
X134013Y59983D01*
X134160Y59393D01*
X134529Y59023D01*
X136301Y58580D01*
X137852Y58211D01*
X139328Y57621D01*
X140067Y57473D01*
X140953Y57325D01*
X142355Y57104D01*
X143167Y56439D01*
X143020Y55849D01*
X142651Y55480D01*
X142355Y55332D01*
X141543Y54668D01*
X141396Y54225D01*
X141543Y53043D01*
X141691Y52600D01*
X141617Y52231D01*
X141026Y52084D01*
X140583Y51936D01*
X140140Y52084D01*
X138812Y52822D01*
X138295Y53634D01*
X138073Y53855D01*
X137630Y54003D01*
X136892Y53560D01*
X136671Y52896D01*
X137114Y52157D01*
X137409Y51862D01*
X137556Y51567D01*
X138369Y50312D01*
X138664Y50164D01*
X139033Y49647D01*
X139328Y49352D01*
X139476Y49057D01*
X139919Y48614D01*
X140067Y48170D01*
X139698Y47654D01*
X138664Y47506D01*
X138221Y47654D01*
X137187Y48244D01*
X135858Y48835D01*
X135046Y49057D01*
X133201Y49869D01*
X131429Y50312D01*
X129509Y50459D01*
X128328Y50312D01*
X127959Y50090D01*
X128106Y49204D01*
X128918Y48835D01*
X129878Y48466D01*
X130617Y48170D01*
X132167Y47506D01*
X133127Y47285D01*
X134382Y46620D01*
X135415Y46177D01*
X136375Y45808D01*
X137261Y45217D01*
X137483Y44996D01*
X138812Y44257D01*
X139033Y44036D01*
X139181Y43741D01*
X139845Y42929D01*
X140067Y42707D01*
X140362Y41969D01*
X140214Y40640D01*
X138812Y38794D01*
X137630Y37613D01*
X136892Y37170D01*
X136080Y36505D01*
X135858Y36284D01*
X134899Y35915D01*
X134382Y35546D01*
X133939Y35103D01*
X132315Y34217D01*
X131724Y33626D01*
X131429Y33479D01*
X130617Y32814D01*
X129804Y32002D01*
X129509Y31854D01*
X129288Y31633D01*
X129140Y31337D01*
X128475Y30525D01*
X128106Y30156D01*
X127959Y29861D01*
X127442Y29196D01*
X126851Y29049D01*
X126113Y28901D01*
X125670Y29049D01*
X124193Y28901D01*
X123381Y28237D01*
X122200Y27055D01*
X122052Y26760D01*
X120207Y24914D01*
X118361Y24250D01*
X117549Y24028D01*
X116441Y23955D01*
X115851Y24102D01*
X115112Y24397D01*
X113710Y25062D01*
X112307Y26465D01*
X111568Y28827D01*
X111716Y30599D01*
X111864Y31042D01*
X112011Y31633D01*
X112381Y33921D01*
X112528Y34512D01*
X112824Y35250D01*
X113340Y36505D01*
X113193Y37687D01*
X112971Y37908D01*
X110609Y37761D01*
X109575Y38499D01*
X109132Y38942D01*
X108837Y39090D01*
X108763Y39163D01*
X108689Y39237D01*
X108172Y39754D01*
X107877Y40492D01*
X107656Y41304D01*
X107508Y42043D01*
X107434Y42264D01*
X107582Y42707D01*
X107803Y43519D01*
X107951Y44110D01*
X108689Y45291D01*
X109058Y45660D01*
X109944Y47285D01*
X110535Y47875D01*
X111199Y49721D01*
X111568Y50533D01*
X111642Y51198D01*
X111568Y52305D01*
X111938Y52674D01*
X112528Y52822D01*
X113414Y52674D01*
X113857Y52526D01*
X114448Y52674D01*
X114669Y53339D01*
X114522Y55111D01*
X114374Y55553D01*
X114817Y57178D01*
X115112Y58211D01*
X115555Y58950D01*
X115998Y59393D01*
X116146Y59688D01*
X116441Y59983D01*
X116589Y60279D01*
X117253Y61091D01*
X117549Y61386D01*
X117844Y61534D01*
X118878Y61977D01*
X119468Y62124D01*
X120280Y62346D01*
X120797Y62715D01*
X121166Y63084D01*
X121683Y64487D01*
X121831Y65077D01*
X122569Y66259D01*
X123086Y66775D01*
X123234Y67071D01*
X123898Y67735D01*
X124193Y67883D01*
X124932Y68621D01*
X125227Y68769D01*
X126261Y69359D01*
X126999Y69655D01*
X127073Y69286D01*
X126334Y68547D01*
X125744Y67514D01*
X125153Y66923D01*
X124267Y65004D01*
X124489Y64634D01*
X125079Y64487D01*
X126408Y64634D01*
X127220Y65299D01*
X127442Y65520D01*
X128180Y65816D01*
X128992Y66037D01*
X129509Y66406D01*
X130100Y66997D01*
X130838Y67292D01*
X131576Y67735D01*
X132315Y68474D01*
X133053Y68917D01*
X134087Y69950D01*
X134382Y70098D01*
X135415Y70836D01*
X135858Y71279D01*
X137483Y72165D01*
X138073Y72756D01*
X139255Y73199D01*
X140067Y73863D01*
X142060Y74971D01*
X142355Y75266D01*
X142651Y75413D01*
X143980Y76004D01*
X144275Y76152D01*
X144718Y76595D01*
X145013Y76743D01*
X147228Y77924D01*
X147671Y78367D01*
X149074Y78884D01*
X149591Y79253D01*
X149886Y79548D01*
X150181Y79696D01*
X151215Y80139D01*
X151953Y80582D01*
X152248Y80877D01*
X152544Y81025D01*
X153873Y81615D01*
X154168Y81763D01*
X154980Y82427D01*
X156531Y83092D01*
X157490Y83461D01*
X157712Y83682D01*
X159188Y84125D01*
X162880Y83978D01*
D02*
G37*
G36*
X152544Y58876D02*
X153134Y58580D01*
X153208Y58507D01*
X153356Y58064D01*
X153208Y57621D01*
X152987Y57399D01*
X151215Y57104D01*
X150181Y56956D01*
X148705Y57104D01*
X148483Y57325D01*
X148336Y57916D01*
X148483Y58211D01*
X148705Y58433D01*
X149443Y58728D01*
X150920Y58876D01*
X152101Y59023D01*
X152544Y58876D01*
D02*
G37*
G36*
X149591Y54741D02*
X150034Y54446D01*
X150107Y54372D01*
X150255Y53929D01*
X150107Y53486D01*
X149148Y53117D01*
X146785Y52969D01*
X146268Y53339D01*
X146121Y53929D01*
X146342Y54446D01*
X147080Y54741D01*
X148557Y54889D01*
X149591Y54741D01*
D02*
G37*
G36*
X109132Y34512D02*
X109501Y33552D01*
X109354Y32962D01*
X109058Y32223D01*
X108689Y31854D01*
X108025Y31633D01*
X107951Y31559D01*
X107139Y31780D01*
X106696Y32223D01*
X106622Y32888D01*
X106917Y33626D01*
X107139Y33848D01*
X107286Y34143D01*
X108246Y34660D01*
X109132Y34512D01*
D02*
G37*
G36*
X110904Y17679D02*
X111126Y17457D01*
X111273Y16867D01*
X110683Y15833D01*
X110387Y15095D01*
X110313Y14873D01*
X108025Y14947D01*
X108172Y16276D01*
X108468Y16572D01*
X108615Y16867D01*
X109427Y17679D01*
X110166Y17827D01*
X110313D01*
X110904Y17679D01*
D02*
G37*
G36*
X169348Y242225D02*
X169506Y242207D01*
X169663Y242179D01*
X169801Y242151D01*
X169931Y242105D01*
X170060Y242059D01*
X170171Y242013D01*
X170273Y241957D01*
X170365Y241902D01*
X170449Y241855D01*
X170513Y241809D01*
X170578Y241763D01*
X170624Y241735D01*
X170652Y241707D01*
X170671Y241689D01*
X170680Y241680D01*
X170781Y241578D01*
X170874Y241467D01*
X170948Y241347D01*
X171013Y241236D01*
X171077Y241125D01*
X171124Y241014D01*
X171188Y240801D01*
X171216Y240709D01*
X171234Y240616D01*
X171244Y240543D01*
X171253Y240469D01*
X171262Y240413D01*
Y240339D01*
X171253Y240173D01*
X171225Y240016D01*
X171197Y239868D01*
X171161Y239738D01*
X171114Y239627D01*
X171087Y239544D01*
X171059Y239489D01*
X171050Y239479D01*
Y239470D01*
X170957Y239322D01*
X170855Y239193D01*
X170754Y239072D01*
X170643Y238980D01*
X170550Y238897D01*
X170476Y238832D01*
X170421Y238795D01*
X170412Y238786D01*
X170578D01*
X170744Y238795D01*
X170892Y238804D01*
X171040Y238823D01*
X171170Y238832D01*
X171290Y238851D01*
X171401Y238869D01*
X171503Y238897D01*
X171595Y238915D01*
X171669Y238934D01*
X171734Y238952D01*
X171789Y238962D01*
X171826Y238980D01*
X171854Y238989D01*
X171873Y238999D01*
X171882D01*
X172067Y239091D01*
X172233Y239183D01*
X172362Y239285D01*
X172473Y239378D01*
X172566Y239461D01*
X172631Y239526D01*
X172668Y239572D01*
X172677Y239590D01*
X172751Y239701D01*
X172797Y239812D01*
X172834Y239923D01*
X172862Y240034D01*
X172880Y240117D01*
X172889Y240191D01*
Y240256D01*
X172871Y240422D01*
X172834Y240579D01*
X172778Y240709D01*
X172723Y240829D01*
X172658Y240922D01*
X172603Y240986D01*
X172566Y241023D01*
X172547Y241042D01*
X172464Y241106D01*
X172362Y241171D01*
X172251Y241227D01*
X172141Y241264D01*
X172039Y241301D01*
X171956Y241328D01*
X171900Y241338D01*
X171891Y241347D01*
X171882D01*
X171946Y242133D01*
X172205Y242077D01*
X172436Y241994D01*
X172640Y241902D01*
X172806Y241800D01*
X172936Y241698D01*
X172991Y241661D01*
X173037Y241615D01*
X173065Y241587D01*
X173093Y241560D01*
X173102Y241550D01*
X173111Y241541D01*
X173185Y241449D01*
X173250Y241347D01*
X173361Y241143D01*
X173435Y240940D01*
X173481Y240746D01*
X173518Y240570D01*
X173527Y240496D01*
Y240432D01*
X173537Y240376D01*
Y240302D01*
X173527Y240117D01*
X173509Y239942D01*
X173472Y239775D01*
X173426Y239618D01*
X173361Y239479D01*
X173305Y239341D01*
X173232Y239220D01*
X173167Y239109D01*
X173102Y239017D01*
X173028Y238925D01*
X172973Y238851D01*
X172917Y238795D01*
X172862Y238749D01*
X172825Y238712D01*
X172806Y238693D01*
X172797Y238684D01*
X172631Y238564D01*
X172436Y238462D01*
X172233Y238370D01*
X172020Y238287D01*
X171798Y238222D01*
X171577Y238166D01*
X171346Y238120D01*
X171133Y238083D01*
X170920Y238055D01*
X170726Y238037D01*
X170550Y238018D01*
X170402Y238009D01*
X170273D01*
X170180Y238000D01*
X170144D01*
X170116D01*
X170107D01*
X170097D01*
X169801Y238009D01*
X169524Y238028D01*
X169265Y238055D01*
X169025Y238102D01*
X168812Y238148D01*
X168618Y238194D01*
X168442Y238250D01*
X168285Y238314D01*
X168156Y238370D01*
X168036Y238425D01*
X167943Y238472D01*
X167860Y238527D01*
X167795Y238564D01*
X167758Y238592D01*
X167730Y238610D01*
X167721Y238619D01*
X167592Y238740D01*
X167481Y238869D01*
X167388Y238999D01*
X167305Y239128D01*
X167231Y239267D01*
X167176Y239396D01*
X167129Y239526D01*
X167092Y239655D01*
X167065Y239766D01*
X167037Y239877D01*
X167019Y239969D01*
X167009Y240053D01*
Y240126D01*
X167000Y240173D01*
Y240219D01*
X167009Y240432D01*
X167046Y240626D01*
X167083Y240801D01*
X167139Y240959D01*
X167185Y241079D01*
X167231Y241171D01*
X167240Y241208D01*
X167259Y241236D01*
X167268Y241245D01*
Y241254D01*
X167379Y241412D01*
X167509Y241560D01*
X167638Y241680D01*
X167767Y241781D01*
X167888Y241865D01*
X167980Y241920D01*
X168017Y241939D01*
X168045Y241957D01*
X168054Y241966D01*
X168063D01*
X168257Y242059D01*
X168461Y242124D01*
X168646Y242170D01*
X168821Y242197D01*
X168969Y242225D01*
X169025D01*
X169080Y242234D01*
X169126D01*
X169154D01*
X169173D01*
X169182D01*
X169348Y242225D01*
D02*
G37*
G36*
X160676Y240599D02*
X160519Y240507D01*
X160371Y240405D01*
X160223Y240285D01*
X160093Y240174D01*
X159982Y240063D01*
X159890Y239980D01*
X159862Y239943D01*
X159834Y239915D01*
X159825Y239906D01*
X159816Y239896D01*
X159659Y239702D01*
X159511Y239508D01*
X159381Y239323D01*
X159280Y239138D01*
X159187Y238981D01*
X159150Y238916D01*
X159122Y238861D01*
X159095Y238815D01*
X159086Y238778D01*
X159067Y238759D01*
Y238750D01*
X158309D01*
X158364Y238889D01*
X158429Y239027D01*
X158494Y239166D01*
X158559Y239296D01*
X158614Y239406D01*
X158660Y239499D01*
X158697Y239554D01*
X158706Y239564D01*
Y239573D01*
X158808Y239739D01*
X158910Y239887D01*
X159002Y240017D01*
X159086Y240118D01*
X159150Y240211D01*
X159206Y240266D01*
X159243Y240312D01*
X159252Y240322D01*
X154250D01*
Y241108D01*
X160676D01*
Y240599D01*
D02*
G37*
G36*
X146463Y233527D02*
X146621Y233518D01*
X146769Y233490D01*
X146907Y233463D01*
X147037Y233426D01*
X147157Y233389D01*
X147268Y233342D01*
X147369Y233296D01*
X147462Y233250D01*
X147536Y233204D01*
X147601Y233167D01*
X147656Y233130D01*
X147702Y233102D01*
X147730Y233074D01*
X147748Y233065D01*
X147758Y233056D01*
X147850Y232963D01*
X147933Y232862D01*
X148017Y232751D01*
X148081Y232640D01*
X148192Y232418D01*
X148266Y232196D01*
X148294Y232094D01*
X148322Y231993D01*
X148340Y231909D01*
X148359Y231835D01*
X148368Y231771D01*
Y231724D01*
X148377Y231697D01*
Y231688D01*
X147573Y231604D01*
X147554Y231817D01*
X147517Y232002D01*
X147462Y232168D01*
X147397Y232298D01*
X147342Y232409D01*
X147286Y232483D01*
X147249Y232529D01*
X147231Y232547D01*
X147092Y232658D01*
X146944Y232742D01*
X146787Y232806D01*
X146648Y232843D01*
X146519Y232871D01*
X146408Y232880D01*
X146371Y232889D01*
X146315D01*
X146121Y232880D01*
X145946Y232843D01*
X145798Y232788D01*
X145668Y232732D01*
X145567Y232668D01*
X145502Y232621D01*
X145456Y232584D01*
X145437Y232566D01*
X145326Y232436D01*
X145243Y232307D01*
X145178Y232178D01*
X145141Y232048D01*
X145113Y231946D01*
X145104Y231854D01*
X145095Y231798D01*
Y231789D01*
Y231780D01*
X145113Y231614D01*
X145150Y231438D01*
X145215Y231281D01*
X145280Y231133D01*
X145354Y231013D01*
X145419Y230911D01*
X145437Y230874D01*
X145456Y230846D01*
X145474Y230837D01*
Y230828D01*
X145548Y230726D01*
X145640Y230624D01*
X145742Y230513D01*
X145853Y230402D01*
X146084Y230180D01*
X146315Y229959D01*
X146436Y229857D01*
X146537Y229764D01*
X146639Y229681D01*
X146722Y229607D01*
X146787Y229552D01*
X146842Y229506D01*
X146879Y229478D01*
X146889Y229469D01*
X147120Y229274D01*
X147332Y229090D01*
X147508Y228923D01*
X147647Y228784D01*
X147767Y228664D01*
X147850Y228581D01*
X147896Y228526D01*
X147915Y228516D01*
Y228507D01*
X148044Y228350D01*
X148146Y228202D01*
X148238Y228054D01*
X148313Y227925D01*
X148368Y227814D01*
X148405Y227730D01*
X148423Y227675D01*
X148433Y227666D01*
Y227656D01*
X148470Y227555D01*
X148488Y227462D01*
X148507Y227370D01*
X148516Y227287D01*
X148525Y227213D01*
Y227157D01*
Y227120D01*
Y227111D01*
X144281D01*
Y227869D01*
X147434D01*
X147323Y228026D01*
X147268Y228091D01*
X147221Y228156D01*
X147175Y228211D01*
X147138Y228248D01*
X147111Y228276D01*
X147101Y228285D01*
X147055Y228331D01*
X147000Y228378D01*
X146870Y228498D01*
X146722Y228636D01*
X146565Y228775D01*
X146417Y228895D01*
X146352Y228951D01*
X146297Y229006D01*
X146251Y229043D01*
X146214Y229071D01*
X146195Y229090D01*
X146186Y229099D01*
X146038Y229228D01*
X145890Y229348D01*
X145761Y229469D01*
X145640Y229570D01*
X145530Y229672D01*
X145437Y229764D01*
X145345Y229848D01*
X145271Y229922D01*
X145197Y229996D01*
X145141Y230051D01*
X145095Y230097D01*
X145049Y230144D01*
X145003Y230199D01*
X144984Y230217D01*
X144855Y230375D01*
X144744Y230513D01*
X144651Y230652D01*
X144577Y230763D01*
X144522Y230865D01*
X144485Y230939D01*
X144466Y230985D01*
X144457Y231003D01*
X144402Y231142D01*
X144365Y231281D01*
X144328Y231410D01*
X144309Y231521D01*
X144300Y231623D01*
X144291Y231697D01*
Y231743D01*
Y231761D01*
X144300Y231900D01*
X144318Y232030D01*
X144337Y232159D01*
X144374Y232270D01*
X144466Y232492D01*
X144559Y232668D01*
X144614Y232751D01*
X144661Y232815D01*
X144707Y232880D01*
X144753Y232926D01*
X144790Y232963D01*
X144808Y233000D01*
X144827Y233010D01*
X144836Y233019D01*
X144938Y233111D01*
X145049Y233195D01*
X145169Y233259D01*
X145289Y233315D01*
X145530Y233407D01*
X145770Y233472D01*
X145872Y233490D01*
X145973Y233509D01*
X146066Y233518D01*
X146140Y233527D01*
X146205Y233537D01*
X146297D01*
X146463Y233527D01*
D02*
G37*
G36*
X150328Y229099D02*
Y228905D01*
X150346Y228738D01*
X150356Y228599D01*
X150374Y228489D01*
X150393Y228405D01*
X150402Y228341D01*
X150421Y228304D01*
Y228294D01*
X150457Y228202D01*
X150504Y228128D01*
X150559Y228063D01*
X150605Y227999D01*
X150661Y227962D01*
X150698Y227925D01*
X150726Y227906D01*
X150735Y227897D01*
X150827Y227851D01*
X150920Y227814D01*
X151012Y227795D01*
X151095Y227777D01*
X151179Y227767D01*
X151234Y227758D01*
X151290D01*
X151438Y227767D01*
X151576Y227804D01*
X151687Y227841D01*
X151789Y227897D01*
X151863Y227943D01*
X151918Y227989D01*
X151955Y228017D01*
X151965Y228026D01*
X152011Y228082D01*
X152048Y228146D01*
X152103Y228294D01*
X152159Y228461D01*
X152186Y228627D01*
X152214Y228784D01*
Y228849D01*
X152223Y228905D01*
X152233Y228960D01*
Y228997D01*
Y229016D01*
Y229025D01*
X153000Y228914D01*
Y228738D01*
X152991Y228581D01*
X152963Y228424D01*
X152944Y228285D01*
X152907Y228156D01*
X152871Y228045D01*
X152834Y227934D01*
X152797Y227841D01*
X152750Y227758D01*
X152713Y227684D01*
X152676Y227619D01*
X152639Y227573D01*
X152612Y227536D01*
X152593Y227499D01*
X152584Y227490D01*
X152575Y227481D01*
X152482Y227398D01*
X152390Y227324D01*
X152288Y227259D01*
X152177Y227203D01*
X151965Y227120D01*
X151761Y227065D01*
X151567Y227028D01*
X151493Y227019D01*
X151419Y227009D01*
X151363Y227000D01*
X151280D01*
X151077Y227009D01*
X150892Y227037D01*
X150726Y227074D01*
X150578Y227120D01*
X150457Y227157D01*
X150374Y227194D01*
X150319Y227222D01*
X150300Y227231D01*
X150152Y227324D01*
X150023Y227435D01*
X149921Y227546D01*
X149829Y227647D01*
X149764Y227749D01*
X149718Y227823D01*
X149690Y227878D01*
X149681Y227888D01*
Y227897D01*
X149616Y228082D01*
X149561Y228276D01*
X149524Y228489D01*
X149505Y228692D01*
X149487Y228868D01*
Y228942D01*
X149477Y229016D01*
Y229071D01*
Y229108D01*
Y229136D01*
Y229145D01*
Y233509D01*
X150328D01*
Y229099D01*
D02*
G37*
G36*
X175636Y198111D02*
X175571Y197973D01*
X175506Y197834D01*
X175442Y197705D01*
X175386Y197594D01*
X175340Y197501D01*
X175303Y197446D01*
X175294Y197436D01*
Y197427D01*
X175192Y197261D01*
X175090Y197113D01*
X174998Y196983D01*
X174915Y196882D01*
X174850Y196789D01*
X174794Y196734D01*
X174757Y196688D01*
X174748Y196678D01*
X179750D01*
Y195892D01*
X173324D01*
Y196401D01*
X173482Y196493D01*
X173629Y196595D01*
X173777Y196715D01*
X173907Y196826D01*
X174018Y196937D01*
X174110Y197020D01*
X174138Y197057D01*
X174166Y197085D01*
X174175Y197094D01*
X174184Y197104D01*
X174341Y197298D01*
X174489Y197492D01*
X174619Y197677D01*
X174720Y197862D01*
X174813Y198019D01*
X174850Y198084D01*
X174878Y198139D01*
X174905Y198185D01*
X174915Y198222D01*
X174933Y198241D01*
Y198250D01*
X175691D01*
X175636Y198111D01*
D02*
G37*
G36*
X28898Y93899D02*
X26060D01*
Y92809D01*
X26069Y92707D01*
Y92633D01*
X26078Y92568D01*
X26088Y92522D01*
Y92485D01*
X26097Y92466D01*
Y92457D01*
X26143Y92309D01*
X26171Y92245D01*
X26199Y92189D01*
X26226Y92134D01*
X26245Y92097D01*
X26254Y92078D01*
X26263Y92069D01*
X26319Y91995D01*
X26384Y91921D01*
X26522Y91782D01*
X26587Y91718D01*
X26642Y91671D01*
X26679Y91643D01*
X26689Y91634D01*
X26818Y91542D01*
X26957Y91440D01*
X27105Y91338D01*
X27243Y91237D01*
X27373Y91153D01*
X27474Y91089D01*
X27511Y91061D01*
X27539Y91042D01*
X27558Y91024D01*
X27567D01*
X28898Y90183D01*
Y89129D01*
X27160Y90229D01*
X26975Y90358D01*
X26809Y90479D01*
X26670Y90599D01*
X26541Y90701D01*
X26448Y90793D01*
X26374Y90867D01*
X26328Y90913D01*
X26309Y90932D01*
X26254Y91006D01*
X26189Y91089D01*
X26088Y91255D01*
X26051Y91329D01*
X26014Y91385D01*
X25995Y91422D01*
X25986Y91440D01*
X25958Y91274D01*
X25930Y91117D01*
X25884Y90978D01*
X25847Y90839D01*
X25801Y90719D01*
X25745Y90608D01*
X25699Y90506D01*
X25653Y90414D01*
X25598Y90340D01*
X25551Y90266D01*
X25514Y90210D01*
X25477Y90164D01*
X25450Y90127D01*
X25422Y90099D01*
X25413Y90090D01*
X25403Y90081D01*
X25311Y90007D01*
X25219Y89933D01*
X25024Y89822D01*
X24830Y89748D01*
X24645Y89693D01*
X24488Y89656D01*
X24423Y89647D01*
X24359D01*
X24312Y89637D01*
X24276D01*
X24257D01*
X24248D01*
X24054Y89647D01*
X23878Y89674D01*
X23712Y89720D01*
X23573Y89767D01*
X23453Y89822D01*
X23360Y89859D01*
X23305Y89896D01*
X23295Y89905D01*
X23286D01*
X23138Y90016D01*
X23009Y90127D01*
X22898Y90247D01*
X22815Y90358D01*
X22750Y90460D01*
X22713Y90543D01*
X22685Y90599D01*
X22676Y90608D01*
Y90617D01*
X22648Y90701D01*
X22620Y90802D01*
X22574Y91006D01*
X22547Y91228D01*
X22519Y91431D01*
X22510Y91625D01*
Y91708D01*
X22500Y91782D01*
Y94750D01*
X28898D01*
Y93899D01*
D02*
G37*
G36*
X26827Y88666D02*
X27021Y88648D01*
X27206Y88620D01*
X27373Y88583D01*
X27530Y88537D01*
X27678Y88491D01*
X27807Y88435D01*
X27927Y88380D01*
X28029Y88324D01*
X28122Y88269D01*
X28196Y88223D01*
X28260Y88176D01*
X28316Y88139D01*
X28353Y88112D01*
X28371Y88093D01*
X28380Y88084D01*
X28491Y87964D01*
X28584Y87844D01*
X28667Y87714D01*
X28741Y87575D01*
X28797Y87446D01*
X28852Y87307D01*
X28926Y87048D01*
X28944Y86928D01*
X28963Y86817D01*
X28981Y86716D01*
X28991Y86632D01*
X29000Y86568D01*
Y86466D01*
X28981Y86179D01*
X28935Y85920D01*
X28880Y85689D01*
X28843Y85597D01*
X28806Y85504D01*
X28769Y85421D01*
X28732Y85347D01*
X28704Y85292D01*
X28676Y85236D01*
X28649Y85199D01*
X28630Y85172D01*
X28612Y85153D01*
Y85144D01*
X28445Y84959D01*
X28270Y84811D01*
X28085Y84682D01*
X27909Y84589D01*
X27752Y84515D01*
X27678Y84487D01*
X27622Y84460D01*
X27567Y84441D01*
X27530Y84432D01*
X27511Y84423D01*
X27502D01*
X27401Y85236D01*
X27576Y85310D01*
X27724Y85393D01*
X27854Y85477D01*
X27955Y85551D01*
X28029Y85615D01*
X28085Y85671D01*
X28122Y85717D01*
X28131Y85726D01*
X28205Y85847D01*
X28260Y85967D01*
X28297Y86096D01*
X28325Y86207D01*
X28344Y86309D01*
X28353Y86392D01*
Y86466D01*
X28344Y86577D01*
X28334Y86679D01*
X28288Y86863D01*
X28223Y87030D01*
X28149Y87178D01*
X28085Y87289D01*
X28020Y87372D01*
X27974Y87428D01*
X27955Y87437D01*
Y87446D01*
X27789Y87575D01*
X27604Y87677D01*
X27401Y87751D01*
X27216Y87807D01*
X27049Y87834D01*
X26975Y87853D01*
X26911Y87862D01*
X26855D01*
X26818Y87871D01*
X26790D01*
X26781D01*
Y84404D01*
X26689Y84395D01*
X26624D01*
X26587D01*
X26578D01*
X26365Y84404D01*
X26171Y84423D01*
X25986Y84450D01*
X25810Y84487D01*
X25653Y84534D01*
X25505Y84580D01*
X25376Y84635D01*
X25255Y84691D01*
X25145Y84746D01*
X25052Y84802D01*
X24978Y84848D01*
X24913Y84894D01*
X24858Y84931D01*
X24821Y84959D01*
X24802Y84977D01*
X24793Y84987D01*
X24682Y85098D01*
X24581Y85218D01*
X24497Y85347D01*
X24423Y85477D01*
X24359Y85606D01*
X24312Y85726D01*
X24266Y85856D01*
X24239Y85967D01*
X24211Y86087D01*
X24192Y86189D01*
X24174Y86281D01*
X24165Y86355D01*
X24155Y86420D01*
Y86512D01*
X24165Y86688D01*
X24183Y86854D01*
X24211Y87011D01*
X24257Y87159D01*
X24303Y87298D01*
X24359Y87428D01*
X24414Y87548D01*
X24479Y87649D01*
X24534Y87751D01*
X24599Y87834D01*
X24655Y87908D01*
X24701Y87964D01*
X24747Y88010D01*
X24775Y88047D01*
X24793Y88066D01*
X24802Y88075D01*
X24932Y88176D01*
X25071Y88269D01*
X25209Y88352D01*
X25357Y88426D01*
X25514Y88482D01*
X25662Y88528D01*
X25958Y88602D01*
X26088Y88629D01*
X26217Y88648D01*
X26328Y88657D01*
X26430Y88666D01*
X26513Y88676D01*
X26568D01*
X26615D01*
X26624D01*
X26827Y88666D01*
D02*
G37*
G36*
X28898Y82176D02*
Y81427D01*
X24257Y79661D01*
Y80475D01*
X27095Y81501D01*
X27280Y81566D01*
X27447Y81630D01*
X27604Y81677D01*
X27724Y81723D01*
X27835Y81751D01*
X27909Y81778D01*
X27955Y81788D01*
X27974Y81797D01*
X27798Y81852D01*
X27622Y81899D01*
X27465Y81954D01*
X27327Y82000D01*
X27206Y82037D01*
X27114Y82065D01*
X27086Y82074D01*
X27058Y82084D01*
X27049Y82093D01*
X27040D01*
X24257Y83091D01*
Y83923D01*
X28898Y82176D01*
D02*
G37*
G36*
Y77849D02*
X28001D01*
Y78746D01*
X28898D01*
Y77849D01*
D02*
G37*
G36*
X25154D02*
X24257D01*
Y78746D01*
X25154D01*
Y77849D01*
D02*
G37*
G36*
X29000Y70103D02*
X27058Y69410D01*
Y66729D01*
X29000Y65980D01*
Y65018D01*
X22602Y67635D01*
Y68559D01*
X29000Y71000D01*
Y70103D01*
D02*
G37*
G36*
X10318Y94732D02*
X10540Y94695D01*
X10734Y94639D01*
X10909Y94574D01*
X11048Y94510D01*
X11104Y94482D01*
X11150Y94463D01*
X11187Y94436D01*
X11214Y94426D01*
X11233Y94408D01*
X11242D01*
X11418Y94269D01*
X11575Y94121D01*
X11704Y93964D01*
X11815Y93816D01*
X11899Y93687D01*
X11954Y93576D01*
X11973Y93539D01*
X11991Y93511D01*
X12000Y93493D01*
Y93483D01*
X12084Y93252D01*
X12148Y93012D01*
X12185Y92772D01*
X12222Y92540D01*
X12232Y92429D01*
X12241Y92337D01*
Y92254D01*
X12250Y92180D01*
Y92032D01*
X12241Y91782D01*
X12213Y91551D01*
X12167Y91338D01*
X12120Y91163D01*
X12084Y91015D01*
X12056Y90950D01*
X12037Y90895D01*
X12019Y90858D01*
X12010Y90830D01*
X12000Y90811D01*
Y90802D01*
X11899Y90608D01*
X11788Y90442D01*
X11667Y90294D01*
X11557Y90174D01*
X11464Y90081D01*
X11381Y90016D01*
X11325Y89970D01*
X11316Y89961D01*
X11307D01*
X11131Y89859D01*
X10965Y89785D01*
X10808Y89739D01*
X10660Y89702D01*
X10530Y89683D01*
X10429Y89665D01*
X10392D01*
X10364D01*
X10355D01*
X10345D01*
X10160Y89674D01*
X9985Y89702D01*
X9828Y89748D01*
X9698Y89794D01*
X9587Y89850D01*
X9504Y89887D01*
X9458Y89924D01*
X9439Y89933D01*
X9301Y90044D01*
X9171Y90174D01*
X9060Y90312D01*
X8959Y90451D01*
X8885Y90571D01*
X8829Y90673D01*
X8811Y90710D01*
X8792Y90737D01*
X8783Y90756D01*
Y90765D01*
X8746Y90839D01*
X8718Y90932D01*
X8681Y91033D01*
X8644Y91144D01*
X8579Y91375D01*
X8515Y91616D01*
X8487Y91727D01*
X8459Y91828D01*
X8432Y91930D01*
X8413Y92013D01*
X8395Y92078D01*
X8385Y92134D01*
X8376Y92170D01*
Y92180D01*
X8330Y92365D01*
X8293Y92531D01*
X8247Y92679D01*
X8210Y92809D01*
X8163Y92929D01*
X8127Y93030D01*
X8090Y93123D01*
X8062Y93206D01*
X8025Y93271D01*
X7997Y93326D01*
X7979Y93363D01*
X7951Y93400D01*
X7923Y93446D01*
X7914Y93456D01*
X7821Y93539D01*
X7729Y93594D01*
X7636Y93641D01*
X7544Y93668D01*
X7470Y93687D01*
X7405Y93696D01*
X7368D01*
X7350D01*
X7202Y93678D01*
X7072Y93641D01*
X6962Y93585D01*
X6860Y93520D01*
X6786Y93465D01*
X6721Y93409D01*
X6684Y93372D01*
X6675Y93354D01*
X6629Y93280D01*
X6582Y93206D01*
X6508Y93030D01*
X6462Y92845D01*
X6425Y92661D01*
X6407Y92494D01*
X6398Y92420D01*
X6388Y92365D01*
Y92235D01*
X6398Y91976D01*
X6435Y91745D01*
X6490Y91560D01*
X6546Y91403D01*
X6601Y91283D01*
X6656Y91191D01*
X6693Y91144D01*
X6703Y91126D01*
X6832Y90996D01*
X6971Y90895D01*
X7119Y90811D01*
X7267Y90756D01*
X7405Y90719D01*
X7507Y90691D01*
X7553Y90682D01*
X7581Y90673D01*
X7599D01*
X7609D01*
X7544Y89859D01*
X7341Y89878D01*
X7156Y89924D01*
X6980Y89970D01*
X6832Y90035D01*
X6712Y90090D01*
X6619Y90136D01*
X6592Y90155D01*
X6564Y90174D01*
X6555Y90183D01*
X6546D01*
X6388Y90303D01*
X6250Y90432D01*
X6129Y90571D01*
X6037Y90710D01*
X5954Y90830D01*
X5907Y90922D01*
X5889Y90959D01*
X5871Y90987D01*
X5861Y91006D01*
Y91015D01*
X5787Y91218D01*
X5732Y91440D01*
X5686Y91643D01*
X5658Y91838D01*
X5639Y92013D01*
Y92078D01*
X5630Y92143D01*
Y92263D01*
X5639Y92503D01*
X5667Y92716D01*
X5704Y92919D01*
X5741Y93095D01*
X5778Y93234D01*
X5797Y93299D01*
X5815Y93345D01*
X5834Y93382D01*
X5843Y93409D01*
X5852Y93428D01*
Y93437D01*
X5944Y93622D01*
X6046Y93788D01*
X6157Y93927D01*
X6259Y94038D01*
X6351Y94121D01*
X6425Y94186D01*
X6481Y94232D01*
X6490Y94242D01*
X6499D01*
X6656Y94334D01*
X6814Y94399D01*
X6971Y94445D01*
X7109Y94473D01*
X7230Y94491D01*
X7322Y94510D01*
X7359D01*
X7387D01*
X7396D01*
X7405D01*
X7563Y94500D01*
X7710Y94473D01*
X7849Y94436D01*
X7969Y94399D01*
X8062Y94362D01*
X8136Y94325D01*
X8182Y94297D01*
X8200Y94288D01*
X8330Y94195D01*
X8450Y94084D01*
X8552Y93973D01*
X8635Y93862D01*
X8709Y93770D01*
X8755Y93687D01*
X8792Y93631D01*
X8801Y93622D01*
Y93613D01*
X8838Y93539D01*
X8875Y93456D01*
X8940Y93271D01*
X9005Y93058D01*
X9069Y92855D01*
X9125Y92670D01*
X9143Y92587D01*
X9162Y92513D01*
X9180Y92457D01*
X9190Y92411D01*
X9199Y92383D01*
Y92374D01*
X9236Y92217D01*
X9273Y92069D01*
X9310Y91939D01*
X9338Y91828D01*
X9365Y91718D01*
X9393Y91625D01*
X9412Y91542D01*
X9439Y91477D01*
X9458Y91412D01*
X9467Y91366D01*
X9495Y91292D01*
X9504Y91246D01*
X9513Y91237D01*
X9569Y91098D01*
X9633Y90978D01*
X9698Y90876D01*
X9754Y90802D01*
X9809Y90737D01*
X9846Y90701D01*
X9874Y90673D01*
X9883Y90663D01*
X9966Y90599D01*
X10059Y90553D01*
X10151Y90525D01*
X10225Y90497D01*
X10299Y90488D01*
X10355Y90479D01*
X10401D01*
X10410D01*
X10521Y90488D01*
X10623Y90506D01*
X10715Y90534D01*
X10789Y90571D01*
X10863Y90608D01*
X10909Y90636D01*
X10946Y90654D01*
X10956Y90663D01*
X11048Y90737D01*
X11122Y90830D01*
X11187Y90922D01*
X11251Y91006D01*
X11288Y91089D01*
X11325Y91153D01*
X11344Y91200D01*
X11353Y91218D01*
X11399Y91357D01*
X11436Y91505D01*
X11455Y91653D01*
X11473Y91782D01*
X11483Y91893D01*
X11492Y91986D01*
Y92069D01*
X11483Y92272D01*
X11464Y92457D01*
X11436Y92624D01*
X11399Y92772D01*
X11362Y92892D01*
X11335Y92984D01*
X11325Y93012D01*
X11316Y93040D01*
X11307Y93049D01*
Y93058D01*
X11233Y93206D01*
X11150Y93345D01*
X11067Y93446D01*
X10983Y93539D01*
X10919Y93613D01*
X10854Y93659D01*
X10817Y93687D01*
X10808Y93696D01*
X10688Y93761D01*
X10558Y93826D01*
X10419Y93862D01*
X10299Y93899D01*
X10179Y93927D01*
X10096Y93946D01*
X10059D01*
X10031Y93955D01*
X10022D01*
X10013D01*
X10086Y94750D01*
X10318Y94732D01*
D02*
G37*
G36*
X9347Y88740D02*
X9633Y88703D01*
X9911Y88648D01*
X10031Y88611D01*
X10151Y88574D01*
X10253Y88546D01*
X10345Y88509D01*
X10429Y88482D01*
X10503Y88454D01*
X10558Y88435D01*
X10595Y88417D01*
X10623Y88398D01*
X10632D01*
X10900Y88241D01*
X11131Y88075D01*
X11335Y87890D01*
X11501Y87714D01*
X11640Y87557D01*
X11695Y87492D01*
X11732Y87437D01*
X11769Y87381D01*
X11797Y87344D01*
X11806Y87326D01*
X11815Y87317D01*
X11889Y87178D01*
X11954Y87039D01*
X12065Y86762D01*
X12139Y86494D01*
X12194Y86244D01*
X12213Y86124D01*
X12222Y86022D01*
X12241Y85930D01*
Y85847D01*
X12250Y85791D01*
Y85699D01*
X12232Y85393D01*
X12185Y85107D01*
X12130Y84839D01*
X12093Y84719D01*
X12056Y84608D01*
X12019Y84506D01*
X11982Y84413D01*
X11954Y84340D01*
X11926Y84275D01*
X11899Y84219D01*
X11880Y84173D01*
X11862Y84155D01*
Y84145D01*
X11695Y83886D01*
X11510Y83665D01*
X11316Y83480D01*
X11131Y83322D01*
X10956Y83193D01*
X10891Y83147D01*
X10826Y83110D01*
X10771Y83073D01*
X10734Y83054D01*
X10706Y83036D01*
X10697D01*
X10549Y82962D01*
X10401Y82906D01*
X10105Y82805D01*
X9809Y82731D01*
X9541Y82684D01*
X9421Y82675D01*
X9310Y82657D01*
X9208Y82647D01*
X9125D01*
X9051Y82638D01*
X9005D01*
X8968D01*
X8959D01*
X8607Y82657D01*
X8284Y82694D01*
X8136Y82722D01*
X7988Y82759D01*
X7858Y82795D01*
X7738Y82823D01*
X7627Y82860D01*
X7526Y82897D01*
X7442Y82925D01*
X7368Y82962D01*
X7313Y82980D01*
X7276Y82999D01*
X7248Y83017D01*
X7239D01*
X6971Y83165D01*
X6730Y83341D01*
X6527Y83526D01*
X6360Y83692D01*
X6231Y83849D01*
X6176Y83923D01*
X6129Y83979D01*
X6102Y84034D01*
X6074Y84071D01*
X6065Y84090D01*
X6055Y84099D01*
X5982Y84238D01*
X5917Y84376D01*
X5806Y84645D01*
X5732Y84922D01*
X5686Y85162D01*
X5667Y85273D01*
X5649Y85384D01*
X5639Y85467D01*
Y85551D01*
X5630Y85615D01*
Y85699D01*
X5639Y85948D01*
X5667Y86179D01*
X5713Y86401D01*
X5769Y86614D01*
X5843Y86808D01*
X5917Y86993D01*
X6000Y87159D01*
X6083Y87307D01*
X6166Y87446D01*
X6250Y87566D01*
X6324Y87668D01*
X6398Y87751D01*
X6453Y87816D01*
X6499Y87871D01*
X6527Y87899D01*
X6536Y87908D01*
X6712Y88056D01*
X6897Y88186D01*
X7100Y88306D01*
X7304Y88398D01*
X7516Y88482D01*
X7720Y88555D01*
X7923Y88611D01*
X8117Y88648D01*
X8302Y88685D01*
X8478Y88713D01*
X8635Y88731D01*
X8764Y88750D01*
X8875D01*
X8959Y88759D01*
X9014D01*
X9023D01*
X9032D01*
X9347Y88740D01*
D02*
G37*
G36*
X9800Y81529D02*
X9966Y81520D01*
X10123Y81501D01*
X10262Y81483D01*
X10392Y81464D01*
X10512Y81436D01*
X10623Y81418D01*
X10725Y81399D01*
X10808Y81372D01*
X10882Y81353D01*
X10937Y81335D01*
X10983Y81316D01*
X11020Y81307D01*
X11039Y81298D01*
X11048D01*
X11251Y81196D01*
X11436Y81067D01*
X11584Y80937D01*
X11714Y80798D01*
X11815Y80678D01*
X11889Y80576D01*
X11908Y80540D01*
X11926Y80512D01*
X11945Y80493D01*
Y80484D01*
X12047Y80253D01*
X12120Y80013D01*
X12176Y79763D01*
X12213Y79532D01*
X12222Y79430D01*
X12232Y79328D01*
X12241Y79236D01*
Y79162D01*
X12250Y79097D01*
Y79014D01*
X12232Y78681D01*
X12213Y78533D01*
X12194Y78395D01*
X12167Y78256D01*
X12139Y78136D01*
X12111Y78025D01*
X12074Y77923D01*
X12037Y77831D01*
X12010Y77757D01*
X11982Y77683D01*
X11954Y77627D01*
X11926Y77581D01*
X11917Y77553D01*
X11899Y77535D01*
Y77526D01*
X11760Y77322D01*
X11603Y77156D01*
X11455Y77026D01*
X11307Y76915D01*
X11178Y76832D01*
X11076Y76777D01*
X11039Y76758D01*
X11011Y76740D01*
X10993Y76730D01*
X10983D01*
X10872Y76693D01*
X10752Y76656D01*
X10503Y76601D01*
X10244Y76564D01*
X9994Y76536D01*
X9883Y76527D01*
X9772Y76518D01*
X9680D01*
X9596Y76508D01*
X9532D01*
X9486D01*
X9449D01*
X9439D01*
X5741D01*
Y77359D01*
X9439D01*
X9652D01*
X9855Y77378D01*
X10031Y77396D01*
X10197Y77424D01*
X10345Y77452D01*
X10484Y77488D01*
X10604Y77516D01*
X10706Y77553D01*
X10789Y77590D01*
X10872Y77627D01*
X10928Y77664D01*
X10983Y77692D01*
X11020Y77720D01*
X11048Y77738D01*
X11057Y77747D01*
X11067Y77757D01*
X11141Y77840D01*
X11205Y77932D01*
X11307Y78136D01*
X11381Y78348D01*
X11427Y78570D01*
X11464Y78774D01*
X11473Y78857D01*
Y78940D01*
X11483Y78995D01*
Y79088D01*
X11473Y79282D01*
X11446Y79458D01*
X11418Y79624D01*
X11372Y79754D01*
X11335Y79865D01*
X11307Y79948D01*
X11279Y79994D01*
X11270Y80013D01*
X11187Y80142D01*
X11085Y80253D01*
X10983Y80345D01*
X10891Y80410D01*
X10798Y80466D01*
X10734Y80512D01*
X10688Y80530D01*
X10669Y80540D01*
X10586Y80567D01*
X10503Y80586D01*
X10308Y80623D01*
X10105Y80651D01*
X9902Y80669D01*
X9726Y80678D01*
X9643D01*
X9578Y80688D01*
X9523D01*
X9476D01*
X9449D01*
X9439D01*
X5741D01*
Y81538D01*
X9439D01*
X9624D01*
X9800Y81529D01*
D02*
G37*
G36*
X6499Y73467D02*
X12139D01*
Y72616D01*
X6499D01*
Y70508D01*
X5741D01*
Y75575D01*
X6499D01*
Y73467D01*
D02*
G37*
G36*
X12139Y68770D02*
X9301D01*
Y67679D01*
X9310Y67577D01*
Y67503D01*
X9319Y67439D01*
X9328Y67392D01*
Y67355D01*
X9338Y67337D01*
Y67328D01*
X9384Y67180D01*
X9412Y67115D01*
X9439Y67059D01*
X9467Y67004D01*
X9486Y66967D01*
X9495Y66948D01*
X9504Y66939D01*
X9560Y66865D01*
X9624Y66791D01*
X9763Y66653D01*
X9828Y66588D01*
X9883Y66542D01*
X9920Y66514D01*
X9929Y66505D01*
X10059Y66412D01*
X10197Y66311D01*
X10345Y66209D01*
X10484Y66107D01*
X10613Y66024D01*
X10715Y65959D01*
X10752Y65932D01*
X10780Y65913D01*
X10798Y65894D01*
X10808D01*
X12139Y65053D01*
Y63999D01*
X10401Y65099D01*
X10216Y65229D01*
X10050Y65349D01*
X9911Y65469D01*
X9781Y65571D01*
X9689Y65663D01*
X9615Y65737D01*
X9569Y65784D01*
X9550Y65802D01*
X9495Y65876D01*
X9430Y65959D01*
X9328Y66126D01*
X9291Y66200D01*
X9254Y66255D01*
X9236Y66292D01*
X9227Y66311D01*
X9199Y66144D01*
X9171Y65987D01*
X9125Y65848D01*
X9088Y65710D01*
X9042Y65589D01*
X8986Y65479D01*
X8940Y65377D01*
X8894Y65284D01*
X8838Y65210D01*
X8792Y65136D01*
X8755Y65081D01*
X8718Y65035D01*
X8690Y64998D01*
X8663Y64970D01*
X8653Y64961D01*
X8644Y64952D01*
X8552Y64878D01*
X8459Y64804D01*
X8265Y64693D01*
X8071Y64619D01*
X7886Y64563D01*
X7729Y64526D01*
X7664Y64517D01*
X7599D01*
X7553Y64508D01*
X7516D01*
X7498D01*
X7488D01*
X7294Y64517D01*
X7119Y64545D01*
X6952Y64591D01*
X6814Y64637D01*
X6693Y64693D01*
X6601Y64730D01*
X6546Y64767D01*
X6536Y64776D01*
X6527D01*
X6379Y64887D01*
X6250Y64998D01*
X6139Y65118D01*
X6055Y65229D01*
X5991Y65331D01*
X5954Y65414D01*
X5926Y65469D01*
X5917Y65479D01*
Y65488D01*
X5889Y65571D01*
X5861Y65673D01*
X5815Y65876D01*
X5787Y66098D01*
X5760Y66301D01*
X5750Y66495D01*
Y66579D01*
X5741Y66653D01*
Y69620D01*
X12139D01*
Y68770D01*
D02*
G37*
G36*
Y62982D02*
X10197Y62289D01*
Y59608D01*
X12139Y58859D01*
Y57897D01*
X5741Y60514D01*
Y61438D01*
X12139Y63879D01*
Y62982D01*
D02*
G37*
G36*
X20389Y92272D02*
Y91385D01*
X13991Y88888D01*
Y89748D01*
X18642Y91486D01*
X18836Y91560D01*
X19021Y91625D01*
X19196Y91680D01*
X19353Y91727D01*
X19492Y91773D01*
X19594Y91801D01*
X19631Y91810D01*
X19659Y91819D01*
X19677Y91828D01*
X19686D01*
X19317Y91939D01*
X19141Y91995D01*
X18984Y92050D01*
X18845Y92097D01*
X18789Y92115D01*
X18734Y92124D01*
X18697Y92143D01*
X18669Y92152D01*
X18651Y92161D01*
X18642D01*
X13991Y93825D01*
Y94750D01*
X20389Y92272D01*
D02*
G37*
G36*
X18318Y88482D02*
X18512Y88463D01*
X18697Y88435D01*
X18864Y88398D01*
X19021Y88352D01*
X19169Y88306D01*
X19298Y88250D01*
X19418Y88195D01*
X19520Y88139D01*
X19612Y88084D01*
X19686Y88038D01*
X19751Y87992D01*
X19806Y87955D01*
X19843Y87927D01*
X19862Y87908D01*
X19871Y87899D01*
X19982Y87779D01*
X20075Y87659D01*
X20158Y87529D01*
X20232Y87390D01*
X20287Y87261D01*
X20343Y87122D01*
X20417Y86863D01*
X20435Y86743D01*
X20454Y86632D01*
X20472Y86531D01*
X20482Y86447D01*
X20491Y86383D01*
Y86281D01*
X20472Y85994D01*
X20426Y85736D01*
X20371Y85504D01*
X20333Y85412D01*
X20297Y85319D01*
X20260Y85236D01*
X20223Y85162D01*
X20195Y85107D01*
X20167Y85051D01*
X20139Y85014D01*
X20121Y84987D01*
X20102Y84968D01*
Y84959D01*
X19936Y84774D01*
X19760Y84626D01*
X19575Y84497D01*
X19400Y84404D01*
X19243Y84330D01*
X19169Y84303D01*
X19113Y84275D01*
X19058Y84256D01*
X19021Y84247D01*
X19002Y84238D01*
X18993D01*
X18891Y85051D01*
X19067Y85125D01*
X19215Y85209D01*
X19344Y85292D01*
X19446Y85366D01*
X19520Y85430D01*
X19575Y85486D01*
X19612Y85532D01*
X19622Y85541D01*
X19696Y85662D01*
X19751Y85782D01*
X19788Y85911D01*
X19816Y86022D01*
X19834Y86124D01*
X19843Y86207D01*
Y86281D01*
X19834Y86392D01*
X19825Y86494D01*
X19779Y86679D01*
X19714Y86845D01*
X19640Y86993D01*
X19575Y87104D01*
X19511Y87187D01*
X19464Y87243D01*
X19446Y87252D01*
Y87261D01*
X19280Y87390D01*
X19095Y87492D01*
X18891Y87566D01*
X18706Y87622D01*
X18540Y87649D01*
X18466Y87668D01*
X18401Y87677D01*
X18346D01*
X18309Y87686D01*
X18281D01*
X18272D01*
Y84219D01*
X18179Y84210D01*
X18115D01*
X18078D01*
X18068D01*
X17856Y84219D01*
X17662Y84238D01*
X17477Y84265D01*
X17301Y84303D01*
X17144Y84349D01*
X16996Y84395D01*
X16866Y84450D01*
X16746Y84506D01*
X16635Y84561D01*
X16543Y84617D01*
X16469Y84663D01*
X16404Y84709D01*
X16349Y84746D01*
X16312Y84774D01*
X16293Y84792D01*
X16284Y84802D01*
X16173Y84913D01*
X16071Y85033D01*
X15988Y85162D01*
X15914Y85292D01*
X15849Y85421D01*
X15803Y85541D01*
X15757Y85671D01*
X15729Y85782D01*
X15702Y85902D01*
X15683Y86004D01*
X15664Y86096D01*
X15655Y86170D01*
X15646Y86235D01*
Y86327D01*
X15655Y86503D01*
X15674Y86669D01*
X15702Y86826D01*
X15748Y86974D01*
X15794Y87113D01*
X15849Y87243D01*
X15905Y87363D01*
X15970Y87465D01*
X16025Y87566D01*
X16090Y87649D01*
X16145Y87723D01*
X16192Y87779D01*
X16238Y87825D01*
X16265Y87862D01*
X16284Y87880D01*
X16293Y87890D01*
X16423Y87992D01*
X16561Y88084D01*
X16700Y88167D01*
X16848Y88241D01*
X17005Y88297D01*
X17153Y88343D01*
X17449Y88417D01*
X17578Y88444D01*
X17708Y88463D01*
X17819Y88472D01*
X17920Y88482D01*
X18004Y88491D01*
X18059D01*
X18105D01*
X18115D01*
X18318Y88482D01*
D02*
G37*
G36*
X20389Y82481D02*
X13991D01*
Y83267D01*
X20389D01*
Y82481D01*
D02*
G37*
G36*
X18281Y81547D02*
X18484Y81529D01*
X18669Y81501D01*
X18845Y81464D01*
X19002Y81418D01*
X19150Y81372D01*
X19289Y81316D01*
X19409Y81261D01*
X19520Y81205D01*
X19612Y81150D01*
X19686Y81103D01*
X19751Y81057D01*
X19806Y81020D01*
X19843Y80992D01*
X19862Y80974D01*
X19871Y80965D01*
X19982Y80845D01*
X20075Y80724D01*
X20158Y80595D01*
X20232Y80465D01*
X20287Y80336D01*
X20343Y80197D01*
X20417Y79948D01*
X20435Y79837D01*
X20454Y79726D01*
X20472Y79633D01*
X20482Y79550D01*
X20491Y79476D01*
Y79384D01*
X20482Y79162D01*
X20445Y78959D01*
X20398Y78764D01*
X20352Y78607D01*
X20297Y78468D01*
X20278Y78413D01*
X20260Y78367D01*
X20241Y78321D01*
X20223Y78293D01*
X20213Y78284D01*
Y78274D01*
X20093Y78089D01*
X19964Y77932D01*
X19834Y77794D01*
X19705Y77683D01*
X19594Y77599D01*
X19501Y77535D01*
X19464Y77516D01*
X19437Y77498D01*
X19427Y77488D01*
X19418D01*
X19206Y77396D01*
X18974Y77331D01*
X18743Y77276D01*
X18512Y77248D01*
X18411Y77230D01*
X18318D01*
X18226Y77220D01*
X18152Y77211D01*
X18087D01*
X18041D01*
X18013D01*
X18004D01*
X17800Y77220D01*
X17615Y77239D01*
X17440Y77267D01*
X17273Y77304D01*
X17116Y77350D01*
X16977Y77405D01*
X16839Y77461D01*
X16728Y77516D01*
X16626Y77572D01*
X16534Y77627D01*
X16450Y77683D01*
X16386Y77729D01*
X16339Y77766D01*
X16302Y77794D01*
X16284Y77812D01*
X16275Y77821D01*
X16164Y77941D01*
X16071Y78062D01*
X15979Y78191D01*
X15914Y78321D01*
X15849Y78450D01*
X15803Y78579D01*
X15720Y78829D01*
X15702Y78949D01*
X15683Y79051D01*
X15664Y79143D01*
X15655Y79227D01*
X15646Y79291D01*
Y79384D01*
X15655Y79541D01*
X15664Y79689D01*
X15729Y79976D01*
X15812Y80225D01*
X15859Y80336D01*
X15905Y80438D01*
X15951Y80530D01*
X15997Y80604D01*
X16044Y80678D01*
X16081Y80734D01*
X16118Y80780D01*
X16145Y80817D01*
X16155Y80835D01*
X16164Y80845D01*
X16284Y80974D01*
X16423Y81076D01*
X16571Y81178D01*
X16718Y81251D01*
X16876Y81325D01*
X17042Y81381D01*
X17199Y81427D01*
X17347Y81464D01*
X17495Y81501D01*
X17625Y81519D01*
X17754Y81538D01*
X17856Y81547D01*
X17948D01*
X18013Y81557D01*
X18050D01*
X18068D01*
X18281Y81547D01*
D02*
G37*
G36*
X18956Y76296D02*
X19076Y76287D01*
X19187Y76277D01*
X19261D01*
X19317Y76268D01*
X19353Y76259D01*
X19363D01*
X19483Y76231D01*
X19594Y76194D01*
X19696Y76157D01*
X19779Y76111D01*
X19853Y76074D01*
X19899Y76046D01*
X19936Y76028D01*
X19945Y76018D01*
X20028Y75944D01*
X20102Y75861D01*
X20167Y75778D01*
X20223Y75686D01*
X20269Y75612D01*
X20306Y75547D01*
X20324Y75510D01*
X20333Y75491D01*
X20389Y75353D01*
X20426Y75223D01*
X20454Y75094D01*
X20472Y74974D01*
X20482Y74872D01*
X20491Y74789D01*
Y74724D01*
X20482Y74558D01*
X20454Y74391D01*
X20417Y74243D01*
X20371Y74095D01*
X20306Y73966D01*
X20241Y73846D01*
X20176Y73735D01*
X20102Y73633D01*
X20028Y73541D01*
X19964Y73467D01*
X19890Y73402D01*
X19834Y73346D01*
X19788Y73300D01*
X19751Y73273D01*
X19723Y73254D01*
X19714Y73245D01*
X20389D01*
Y72542D01*
X15748D01*
Y73328D01*
X18235D01*
X18447Y73337D01*
X18632Y73346D01*
X18789Y73365D01*
X18919Y73393D01*
X19021Y73420D01*
X19095Y73439D01*
X19132Y73448D01*
X19150Y73457D01*
X19261Y73513D01*
X19353Y73578D01*
X19437Y73651D01*
X19511Y73726D01*
X19566Y73790D01*
X19603Y73846D01*
X19631Y73883D01*
X19640Y73901D01*
X19696Y74021D01*
X19742Y74142D01*
X19770Y74253D01*
X19797Y74354D01*
X19806Y74437D01*
X19816Y74502D01*
Y74567D01*
X19806Y74696D01*
X19788Y74807D01*
X19760Y74909D01*
X19723Y74992D01*
X19696Y75066D01*
X19668Y75112D01*
X19649Y75149D01*
X19640Y75159D01*
X19566Y75242D01*
X19492Y75307D01*
X19409Y75362D01*
X19335Y75408D01*
X19261Y75436D01*
X19206Y75454D01*
X19169Y75473D01*
X19159D01*
X19058Y75491D01*
X18937Y75501D01*
X18799Y75510D01*
X18660D01*
X18531Y75519D01*
X18429D01*
X18383D01*
X18355D01*
X18336D01*
X18327D01*
X15748D01*
Y76305D01*
X18623D01*
X18799D01*
X18956Y76296D01*
D02*
G37*
G36*
X20389Y70536D02*
X17967D01*
X17782Y70526D01*
X17615Y70517D01*
X17458Y70499D01*
X17320Y70471D01*
X17208Y70443D01*
X17125Y70425D01*
X17070Y70416D01*
X17051Y70406D01*
X16950Y70369D01*
X16866Y70323D01*
X16793Y70277D01*
X16728Y70231D01*
X16681Y70184D01*
X16645Y70157D01*
X16626Y70129D01*
X16617Y70120D01*
X16561Y70046D01*
X16524Y69963D01*
X16497Y69879D01*
X16478Y69815D01*
X16469Y69750D01*
X16460Y69704D01*
Y69657D01*
X16469Y69556D01*
X16487Y69454D01*
X16515Y69352D01*
X16543Y69269D01*
X16571Y69195D01*
X16598Y69140D01*
X16617Y69103D01*
X16626Y69093D01*
X15905Y68807D01*
X15822Y68964D01*
X15757Y69112D01*
X15711Y69241D01*
X15674Y69362D01*
X15655Y69463D01*
X15646Y69546D01*
Y69611D01*
X15655Y69713D01*
X15674Y69805D01*
X15702Y69898D01*
X15729Y69972D01*
X15757Y70027D01*
X15785Y70083D01*
X15803Y70111D01*
X15812Y70120D01*
X15886Y70203D01*
X15979Y70286D01*
X16090Y70369D01*
X16192Y70443D01*
X16293Y70517D01*
X16376Y70564D01*
X16441Y70601D01*
X16450Y70610D01*
X15748D01*
Y71322D01*
X20389D01*
Y70536D01*
D02*
G37*
G36*
Y67549D02*
X15748D01*
Y68335D01*
X20389D01*
Y67549D01*
D02*
G37*
G36*
X14888D02*
X13991D01*
Y68335D01*
X14888D01*
Y67549D01*
D02*
G37*
G36*
X19280Y66606D02*
X19372Y66597D01*
X19566Y66551D01*
X19723Y66486D01*
X19862Y66412D01*
X19973Y66338D01*
X20056Y66274D01*
X20102Y66227D01*
X20121Y66209D01*
X20241Y66042D01*
X20333Y65858D01*
X20398Y65654D01*
X20445Y65469D01*
X20472Y65303D01*
X20482Y65229D01*
Y65164D01*
X20491Y65109D01*
Y65035D01*
X20482Y64868D01*
X20463Y64702D01*
X20445Y64554D01*
X20417Y64424D01*
X20389Y64323D01*
X20361Y64240D01*
X20352Y64184D01*
X20343Y64166D01*
X20278Y64008D01*
X20195Y63861D01*
X20102Y63722D01*
X20019Y63583D01*
X19936Y63472D01*
X19871Y63389D01*
X19825Y63334D01*
X19806Y63324D01*
Y63315D01*
X19927Y63296D01*
X20038Y63278D01*
X20139Y63260D01*
X20223Y63232D01*
X20297Y63204D01*
X20343Y63186D01*
X20380Y63176D01*
X20389Y63167D01*
Y62344D01*
X20287Y62390D01*
X20186Y62437D01*
X20093Y62474D01*
X20010Y62492D01*
X19936Y62520D01*
X19880Y62529D01*
X19843Y62538D01*
X19834D01*
X19770Y62548D01*
X19686Y62557D01*
X19594D01*
X19492Y62566D01*
X19261Y62575D01*
X19030D01*
X18808Y62585D01*
X18706D01*
X18623D01*
X18549D01*
X18494D01*
X18457D01*
X18447D01*
X17393D01*
X17218D01*
X17061Y62594D01*
X16940Y62603D01*
X16839D01*
X16765Y62612D01*
X16709Y62621D01*
X16681Y62631D01*
X16672D01*
X16552Y62659D01*
X16450Y62695D01*
X16367Y62733D01*
X16284Y62779D01*
X16228Y62816D01*
X16182Y62843D01*
X16155Y62862D01*
X16145Y62871D01*
X16071Y62945D01*
X15997Y63028D01*
X15942Y63121D01*
X15886Y63213D01*
X15849Y63296D01*
X15822Y63361D01*
X15803Y63407D01*
X15794Y63426D01*
X15748Y63574D01*
X15711Y63731D01*
X15683Y63888D01*
X15664Y64045D01*
X15655Y64184D01*
X15646Y64286D01*
Y64387D01*
X15655Y64609D01*
X15674Y64804D01*
X15702Y64988D01*
X15729Y65136D01*
X15757Y65266D01*
X15785Y65358D01*
X15794Y65395D01*
X15803Y65423D01*
X15812Y65432D01*
Y65441D01*
X15877Y65599D01*
X15960Y65737D01*
X16034Y65858D01*
X16108Y65959D01*
X16182Y66033D01*
X16238Y66089D01*
X16275Y66126D01*
X16284Y66135D01*
X16404Y66218D01*
X16534Y66292D01*
X16663Y66347D01*
X16783Y66394D01*
X16903Y66431D01*
X16987Y66459D01*
X17024Y66468D01*
X17051D01*
X17061Y66477D01*
X17070D01*
X17171Y65710D01*
X17005Y65654D01*
X16857Y65599D01*
X16737Y65534D01*
X16645Y65478D01*
X16571Y65423D01*
X16524Y65377D01*
X16497Y65340D01*
X16487Y65331D01*
X16423Y65220D01*
X16376Y65090D01*
X16339Y64951D01*
X16321Y64822D01*
X16302Y64693D01*
X16293Y64600D01*
Y64508D01*
X16302Y64295D01*
X16330Y64110D01*
X16376Y63962D01*
X16423Y63833D01*
X16478Y63740D01*
X16515Y63666D01*
X16552Y63620D01*
X16561Y63611D01*
X16645Y63537D01*
X16746Y63481D01*
X16857Y63435D01*
X16968Y63407D01*
X17070Y63389D01*
X17162Y63380D01*
X17218D01*
X17227D01*
X17236D01*
X17255D01*
X17292D01*
X17356D01*
X17412Y63389D01*
X17430D01*
X17440D01*
X17467Y63481D01*
X17495Y63583D01*
X17551Y63796D01*
X17597Y64036D01*
X17643Y64258D01*
X17662Y64369D01*
X17671Y64471D01*
X17689Y64563D01*
X17699Y64637D01*
X17708Y64702D01*
Y64748D01*
X17717Y64785D01*
Y64794D01*
X17736Y64961D01*
X17763Y65099D01*
X17782Y65220D01*
X17800Y65312D01*
X17809Y65386D01*
X17828Y65441D01*
X17837Y65478D01*
Y65488D01*
X17874Y65608D01*
X17911Y65710D01*
X17957Y65811D01*
X17994Y65894D01*
X18031Y65968D01*
X18068Y66015D01*
X18087Y66052D01*
X18096Y66061D01*
X18161Y66153D01*
X18235Y66227D01*
X18309Y66301D01*
X18383Y66357D01*
X18447Y66403D01*
X18503Y66440D01*
X18540Y66459D01*
X18549Y66468D01*
X18651Y66514D01*
X18762Y66551D01*
X18864Y66579D01*
X18965Y66597D01*
X19048Y66606D01*
X19113Y66616D01*
X19150D01*
X19169D01*
X19280Y66606D01*
D02*
G37*
G36*
X20389Y54818D02*
X19631D01*
Y57971D01*
X13991D01*
Y58822D01*
X20389D01*
Y54818D01*
D02*
G37*
G36*
Y49021D02*
X19631D01*
Y52951D01*
X17458D01*
Y49410D01*
X16700D01*
Y52951D01*
X14749D01*
Y49169D01*
X13991D01*
Y53801D01*
X20389D01*
Y49021D01*
D02*
G37*
G36*
Y45545D02*
X20380Y45332D01*
X20371Y45138D01*
X20352Y44962D01*
X20333Y44815D01*
X20315Y44685D01*
X20306Y44593D01*
X20297Y44565D01*
X20287Y44537D01*
Y44519D01*
X20241Y44352D01*
X20186Y44204D01*
X20139Y44075D01*
X20084Y43964D01*
X20038Y43871D01*
X20001Y43807D01*
X19973Y43770D01*
X19964Y43751D01*
X19880Y43631D01*
X19779Y43529D01*
X19686Y43428D01*
X19594Y43344D01*
X19511Y43271D01*
X19446Y43215D01*
X19400Y43178D01*
X19381Y43169D01*
X19233Y43076D01*
X19076Y42984D01*
X18928Y42910D01*
X18780Y42854D01*
X18651Y42799D01*
X18549Y42762D01*
X18512Y42753D01*
X18484Y42744D01*
X18466Y42734D01*
X18457D01*
X18235Y42679D01*
X18013Y42633D01*
X17800Y42605D01*
X17597Y42577D01*
X17421Y42568D01*
X17347D01*
X17283Y42559D01*
X17236D01*
X17190D01*
X17171D01*
X17162D01*
X16848Y42568D01*
X16561Y42596D01*
X16302Y42642D01*
X16182Y42660D01*
X16081Y42688D01*
X15979Y42716D01*
X15896Y42734D01*
X15822Y42753D01*
X15757Y42780D01*
X15702Y42790D01*
X15664Y42808D01*
X15646Y42818D01*
X15637D01*
X15396Y42919D01*
X15184Y43039D01*
X14999Y43169D01*
X14842Y43289D01*
X14712Y43400D01*
X14620Y43492D01*
X14592Y43529D01*
X14564Y43557D01*
X14555Y43566D01*
X14546Y43576D01*
X14426Y43724D01*
X14333Y43881D01*
X14250Y44038D01*
X14185Y44186D01*
X14139Y44315D01*
X14111Y44417D01*
X14093Y44454D01*
Y44482D01*
X14083Y44500D01*
Y44509D01*
X14056Y44667D01*
X14028Y44851D01*
X14009Y45036D01*
X14000Y45221D01*
X13991Y45388D01*
Y47847D01*
X20389D01*
Y45545D01*
D02*
G37*
G36*
X17477Y39138D02*
X17800Y39101D01*
X18087Y39055D01*
X18226Y39018D01*
X18346Y38990D01*
X18457Y38962D01*
X18558Y38925D01*
X18651Y38897D01*
X18725Y38879D01*
X18780Y38851D01*
X18827Y38842D01*
X18854Y38823D01*
X18864D01*
X19141Y38685D01*
X19390Y38528D01*
X19603Y38361D01*
X19686Y38278D01*
X19770Y38204D01*
X19843Y38130D01*
X19908Y38056D01*
X19964Y37991D01*
X20001Y37936D01*
X20038Y37899D01*
X20065Y37862D01*
X20075Y37843D01*
X20084Y37834D01*
X20158Y37705D01*
X20223Y37575D01*
X20324Y37298D01*
X20398Y37020D01*
X20445Y36752D01*
X20463Y36623D01*
X20482Y36512D01*
X20491Y36410D01*
Y36327D01*
X20500Y36253D01*
Y36151D01*
X20491Y35966D01*
X20472Y35791D01*
X20454Y35624D01*
X20417Y35467D01*
X20371Y35319D01*
X20324Y35181D01*
X20278Y35051D01*
X20223Y34931D01*
X20176Y34829D01*
X20130Y34728D01*
X20084Y34654D01*
X20038Y34580D01*
X20001Y34533D01*
X19982Y34487D01*
X19964Y34469D01*
X19955Y34459D01*
X19843Y34330D01*
X19733Y34219D01*
X19603Y34117D01*
X19474Y34016D01*
X19215Y33849D01*
X18956Y33720D01*
X18836Y33664D01*
X18725Y33618D01*
X18623Y33581D01*
X18540Y33553D01*
X18466Y33526D01*
X18411Y33507D01*
X18374Y33498D01*
X18364D01*
X18152Y34348D01*
X18299Y34385D01*
X18438Y34432D01*
X18568Y34478D01*
X18688Y34524D01*
X18799Y34580D01*
X18891Y34635D01*
X18984Y34700D01*
X19067Y34755D01*
X19141Y34801D01*
X19196Y34857D01*
X19252Y34903D01*
X19298Y34940D01*
X19326Y34977D01*
X19353Y35005D01*
X19363Y35014D01*
X19372Y35023D01*
X19446Y35116D01*
X19501Y35218D01*
X19603Y35421D01*
X19677Y35615D01*
X19723Y35809D01*
X19760Y35976D01*
X19770Y36040D01*
Y36105D01*
X19779Y36161D01*
Y36225D01*
X19770Y36438D01*
X19733Y36641D01*
X19686Y36826D01*
X19631Y36993D01*
X19575Y37122D01*
X19548Y37178D01*
X19529Y37224D01*
X19511Y37261D01*
X19492Y37289D01*
X19483Y37307D01*
Y37316D01*
X19353Y37492D01*
X19215Y37640D01*
X19058Y37769D01*
X18910Y37871D01*
X18780Y37954D01*
X18669Y38010D01*
X18623Y38028D01*
X18595Y38047D01*
X18577Y38056D01*
X18568D01*
X18327Y38130D01*
X18087Y38185D01*
X17846Y38232D01*
X17625Y38259D01*
X17523Y38269D01*
X17430Y38278D01*
X17347D01*
X17283Y38287D01*
X17227D01*
X17181D01*
X17153D01*
X17144D01*
X16903Y38278D01*
X16681Y38259D01*
X16478Y38222D01*
X16293Y38185D01*
X16136Y38158D01*
X16071Y38139D01*
X16016Y38121D01*
X15970Y38112D01*
X15942Y38102D01*
X15923Y38093D01*
X15914D01*
X15702Y38001D01*
X15507Y37899D01*
X15350Y37788D01*
X15211Y37668D01*
X15101Y37566D01*
X15027Y37483D01*
X14980Y37418D01*
X14962Y37409D01*
Y37399D01*
X14842Y37205D01*
X14749Y36993D01*
X14684Y36789D01*
X14648Y36595D01*
X14620Y36419D01*
X14611Y36346D01*
Y36281D01*
X14601Y36235D01*
Y36161D01*
X14611Y35930D01*
X14648Y35717D01*
X14703Y35541D01*
X14758Y35384D01*
X14823Y35264D01*
X14869Y35171D01*
X14906Y35116D01*
X14925Y35097D01*
X15064Y34950D01*
X15221Y34811D01*
X15387Y34700D01*
X15554Y34607D01*
X15702Y34533D01*
X15776Y34506D01*
X15831Y34487D01*
X15877Y34469D01*
X15914Y34450D01*
X15933Y34441D01*
X15942D01*
X15748Y33609D01*
X15581Y33664D01*
X15433Y33720D01*
X15295Y33794D01*
X15156Y33858D01*
X15036Y33932D01*
X14925Y34016D01*
X14814Y34090D01*
X14721Y34164D01*
X14648Y34237D01*
X14574Y34302D01*
X14509Y34367D01*
X14463Y34413D01*
X14416Y34459D01*
X14389Y34496D01*
X14379Y34515D01*
X14370Y34524D01*
X14287Y34654D01*
X14204Y34783D01*
X14139Y34913D01*
X14083Y35051D01*
X14000Y35329D01*
X13945Y35578D01*
X13917Y35698D01*
X13908Y35800D01*
X13899Y35902D01*
X13889Y35985D01*
X13880Y36050D01*
Y36142D01*
X13899Y36447D01*
X13945Y36743D01*
X14000Y37002D01*
X14037Y37122D01*
X14074Y37233D01*
X14111Y37335D01*
X14148Y37427D01*
X14176Y37501D01*
X14204Y37575D01*
X14231Y37621D01*
X14250Y37658D01*
X14259Y37686D01*
X14268Y37695D01*
X14426Y37945D01*
X14611Y38158D01*
X14795Y38343D01*
X14980Y38500D01*
X15147Y38620D01*
X15221Y38666D01*
X15285Y38703D01*
X15332Y38740D01*
X15369Y38759D01*
X15396Y38768D01*
X15406Y38777D01*
X15692Y38907D01*
X15988Y38999D01*
X16284Y39064D01*
X16552Y39110D01*
X16672Y39128D01*
X16793Y39138D01*
X16885Y39147D01*
X16977D01*
X17042Y39156D01*
X17098D01*
X17135D01*
X17144D01*
X17477Y39138D01*
D02*
G37*
G36*
X18281Y32841D02*
X18484Y32823D01*
X18669Y32795D01*
X18845Y32758D01*
X19002Y32712D01*
X19150Y32666D01*
X19289Y32610D01*
X19409Y32555D01*
X19520Y32499D01*
X19612Y32444D01*
X19686Y32398D01*
X19751Y32351D01*
X19806Y32315D01*
X19843Y32287D01*
X19862Y32268D01*
X19871Y32259D01*
X19982Y32139D01*
X20075Y32019D01*
X20158Y31889D01*
X20232Y31760D01*
X20287Y31630D01*
X20343Y31492D01*
X20417Y31242D01*
X20435Y31131D01*
X20454Y31020D01*
X20472Y30928D01*
X20482Y30844D01*
X20491Y30770D01*
Y30678D01*
X20482Y30456D01*
X20445Y30253D01*
X20398Y30059D01*
X20352Y29901D01*
X20297Y29763D01*
X20278Y29707D01*
X20260Y29661D01*
X20241Y29615D01*
X20223Y29587D01*
X20213Y29578D01*
Y29569D01*
X20093Y29384D01*
X19964Y29226D01*
X19834Y29088D01*
X19705Y28977D01*
X19594Y28894D01*
X19501Y28829D01*
X19464Y28810D01*
X19437Y28792D01*
X19427Y28783D01*
X19418D01*
X19206Y28690D01*
X18974Y28626D01*
X18743Y28570D01*
X18512Y28542D01*
X18411Y28524D01*
X18318D01*
X18226Y28514D01*
X18152Y28505D01*
X18087D01*
X18041D01*
X18013D01*
X18004D01*
X17800Y28514D01*
X17615Y28533D01*
X17440Y28561D01*
X17273Y28598D01*
X17116Y28644D01*
X16977Y28699D01*
X16839Y28755D01*
X16728Y28810D01*
X16626Y28866D01*
X16534Y28921D01*
X16450Y28977D01*
X16386Y29023D01*
X16339Y29060D01*
X16302Y29088D01*
X16284Y29106D01*
X16275Y29116D01*
X16164Y29236D01*
X16071Y29356D01*
X15979Y29485D01*
X15914Y29615D01*
X15849Y29744D01*
X15803Y29874D01*
X15720Y30123D01*
X15702Y30243D01*
X15683Y30345D01*
X15664Y30438D01*
X15655Y30521D01*
X15646Y30585D01*
Y30678D01*
X15655Y30835D01*
X15664Y30983D01*
X15729Y31270D01*
X15812Y31519D01*
X15859Y31630D01*
X15905Y31732D01*
X15951Y31824D01*
X15997Y31898D01*
X16044Y31972D01*
X16081Y32028D01*
X16118Y32074D01*
X16145Y32111D01*
X16155Y32130D01*
X16164Y32139D01*
X16284Y32268D01*
X16423Y32370D01*
X16571Y32472D01*
X16718Y32546D01*
X16876Y32620D01*
X17042Y32675D01*
X17199Y32721D01*
X17347Y32758D01*
X17495Y32795D01*
X17625Y32814D01*
X17754Y32832D01*
X17856Y32841D01*
X17948D01*
X18013Y32851D01*
X18050D01*
X18068D01*
X18281Y32841D01*
D02*
G37*
G36*
X20389Y26795D02*
X17865D01*
X17708D01*
X17551Y26776D01*
X17421Y26758D01*
X17301Y26739D01*
X17190Y26712D01*
X17088Y26684D01*
X16996Y26647D01*
X16922Y26610D01*
X16857Y26582D01*
X16802Y26545D01*
X16755Y26518D01*
X16718Y26490D01*
X16672Y26453D01*
X16654Y26434D01*
X16543Y26296D01*
X16469Y26148D01*
X16413Y26000D01*
X16367Y25870D01*
X16349Y25750D01*
X16339Y25658D01*
X16330Y25621D01*
Y25574D01*
X16339Y25464D01*
X16349Y25352D01*
X16376Y25260D01*
X16404Y25186D01*
X16432Y25121D01*
X16450Y25066D01*
X16469Y25038D01*
X16478Y25029D01*
X16534Y24946D01*
X16598Y24872D01*
X16663Y24816D01*
X16718Y24770D01*
X16774Y24742D01*
X16820Y24715D01*
X16848Y24696D01*
X16857D01*
X16959Y24668D01*
X17070Y24641D01*
X17190Y24622D01*
X17310Y24613D01*
X17412Y24604D01*
X17495D01*
X17560D01*
X17569D01*
X17578D01*
X20389D01*
Y23818D01*
X17541D01*
X17347D01*
X17190Y23827D01*
X17061Y23836D01*
X16950D01*
X16876Y23846D01*
X16820Y23855D01*
X16783Y23864D01*
X16774D01*
X16654Y23892D01*
X16543Y23938D01*
X16450Y23975D01*
X16358Y24012D01*
X16293Y24058D01*
X16247Y24086D01*
X16210Y24104D01*
X16201Y24114D01*
X16108Y24188D01*
X16034Y24271D01*
X15960Y24354D01*
X15905Y24446D01*
X15859Y24520D01*
X15831Y24585D01*
X15812Y24622D01*
X15803Y24641D01*
X15748Y24770D01*
X15711Y24909D01*
X15683Y25038D01*
X15664Y25158D01*
X15655Y25260D01*
X15646Y25334D01*
Y25408D01*
X15655Y25584D01*
X15683Y25750D01*
X15720Y25898D01*
X15766Y26046D01*
X15822Y26175D01*
X15886Y26296D01*
X15960Y26407D01*
X16025Y26499D01*
X16099Y26591D01*
X16173Y26665D01*
X16238Y26730D01*
X16293Y26786D01*
X16339Y26823D01*
X16376Y26850D01*
X16404Y26869D01*
X16413Y26878D01*
X15748D01*
Y27581D01*
X20389D01*
Y26795D01*
D02*
G37*
G36*
X16358Y22477D02*
X19039D01*
X19169D01*
X19280D01*
X19381Y22468D01*
X19483Y22459D01*
X19566D01*
X19640Y22449D01*
X19760Y22431D01*
X19853Y22412D01*
X19918Y22403D01*
X19955Y22385D01*
X19964D01*
X20047Y22348D01*
X20112Y22292D01*
X20176Y22237D01*
X20223Y22190D01*
X20269Y22135D01*
X20297Y22098D01*
X20315Y22070D01*
X20324Y22061D01*
X20371Y21959D01*
X20398Y21858D01*
X20426Y21747D01*
X20435Y21636D01*
X20445Y21543D01*
X20454Y21469D01*
Y21395D01*
X20445Y21192D01*
X20435Y21090D01*
X20417Y20998D01*
X20408Y20915D01*
X20398Y20850D01*
X20389Y20813D01*
Y20794D01*
X19696Y20896D01*
X19705Y20970D01*
X19714Y21044D01*
Y21109D01*
X19723Y21155D01*
Y21247D01*
X19714Y21368D01*
X19696Y21451D01*
X19677Y21497D01*
X19668Y21516D01*
X19622Y21580D01*
X19575Y21617D01*
X19538Y21645D01*
X19520Y21654D01*
X19474Y21663D01*
X19409Y21673D01*
X19261Y21682D01*
X19196Y21691D01*
X19141D01*
X19104D01*
X19085D01*
X16358D01*
Y20896D01*
X15748D01*
Y21691D01*
X14130D01*
X14601Y22477D01*
X15748D01*
Y23060D01*
X16358D01*
Y22477D01*
D02*
G37*
G36*
X20389Y19343D02*
X17967D01*
X17782Y19334D01*
X17615Y19324D01*
X17458Y19306D01*
X17320Y19278D01*
X17208Y19250D01*
X17125Y19232D01*
X17070Y19223D01*
X17051Y19213D01*
X16950Y19176D01*
X16866Y19130D01*
X16793Y19084D01*
X16728Y19038D01*
X16681Y18992D01*
X16645Y18964D01*
X16626Y18936D01*
X16617Y18927D01*
X16561Y18853D01*
X16524Y18770D01*
X16497Y18686D01*
X16478Y18622D01*
X16469Y18557D01*
X16460Y18511D01*
Y18465D01*
X16469Y18363D01*
X16487Y18261D01*
X16515Y18160D01*
X16543Y18076D01*
X16571Y18002D01*
X16598Y17947D01*
X16617Y17910D01*
X16626Y17901D01*
X15905Y17614D01*
X15822Y17771D01*
X15757Y17919D01*
X15711Y18048D01*
X15674Y18169D01*
X15655Y18270D01*
X15646Y18354D01*
Y18418D01*
X15655Y18520D01*
X15674Y18613D01*
X15702Y18705D01*
X15729Y18779D01*
X15757Y18834D01*
X15785Y18890D01*
X15803Y18918D01*
X15812Y18927D01*
X15886Y19010D01*
X15979Y19093D01*
X16090Y19176D01*
X16192Y19250D01*
X16293Y19324D01*
X16376Y19371D01*
X16441Y19408D01*
X16450Y19417D01*
X15748D01*
Y20129D01*
X20389D01*
Y19343D01*
D02*
G37*
G36*
X18281Y17429D02*
X18484Y17411D01*
X18669Y17383D01*
X18845Y17346D01*
X19002Y17300D01*
X19150Y17253D01*
X19289Y17198D01*
X19409Y17142D01*
X19520Y17087D01*
X19612Y17032D01*
X19686Y16985D01*
X19751Y16939D01*
X19806Y16902D01*
X19843Y16874D01*
X19862Y16856D01*
X19871Y16847D01*
X19982Y16726D01*
X20075Y16606D01*
X20158Y16477D01*
X20232Y16347D01*
X20287Y16218D01*
X20343Y16079D01*
X20417Y15830D01*
X20435Y15719D01*
X20454Y15608D01*
X20472Y15515D01*
X20482Y15432D01*
X20491Y15358D01*
Y15266D01*
X20482Y15044D01*
X20445Y14840D01*
X20398Y14646D01*
X20352Y14489D01*
X20297Y14350D01*
X20278Y14295D01*
X20260Y14249D01*
X20241Y14202D01*
X20223Y14175D01*
X20213Y14165D01*
Y14156D01*
X20093Y13971D01*
X19964Y13814D01*
X19834Y13675D01*
X19705Y13564D01*
X19594Y13481D01*
X19501Y13417D01*
X19464Y13398D01*
X19437Y13379D01*
X19427Y13370D01*
X19418D01*
X19206Y13278D01*
X18974Y13213D01*
X18743Y13158D01*
X18512Y13130D01*
X18411Y13111D01*
X18318D01*
X18226Y13102D01*
X18152Y13093D01*
X18087D01*
X18041D01*
X18013D01*
X18004D01*
X17800Y13102D01*
X17615Y13121D01*
X17440Y13148D01*
X17273Y13185D01*
X17116Y13232D01*
X16977Y13287D01*
X16839Y13342D01*
X16728Y13398D01*
X16626Y13453D01*
X16534Y13509D01*
X16450Y13564D01*
X16386Y13611D01*
X16339Y13648D01*
X16302Y13675D01*
X16284Y13694D01*
X16275Y13703D01*
X16164Y13823D01*
X16071Y13944D01*
X15979Y14073D01*
X15914Y14202D01*
X15849Y14332D01*
X15803Y14461D01*
X15720Y14711D01*
X15702Y14831D01*
X15683Y14933D01*
X15664Y15025D01*
X15655Y15108D01*
X15646Y15173D01*
Y15266D01*
X15655Y15423D01*
X15664Y15571D01*
X15729Y15857D01*
X15812Y16107D01*
X15859Y16218D01*
X15905Y16320D01*
X15951Y16412D01*
X15997Y16486D01*
X16044Y16560D01*
X16081Y16615D01*
X16118Y16662D01*
X16145Y16699D01*
X16155Y16717D01*
X16164Y16726D01*
X16284Y16856D01*
X16423Y16957D01*
X16571Y17059D01*
X16718Y17133D01*
X16876Y17207D01*
X17042Y17263D01*
X17199Y17309D01*
X17347Y17346D01*
X17495Y17383D01*
X17625Y17401D01*
X17754Y17420D01*
X17856Y17429D01*
X17948D01*
X18013Y17438D01*
X18050D01*
X18068D01*
X18281Y17429D01*
D02*
G37*
G36*
X20389Y11401D02*
X13991D01*
Y12187D01*
X20389D01*
Y11401D01*
D02*
G37*
G36*
Y9413D02*
X13991D01*
Y10199D01*
X20389D01*
Y9413D01*
D02*
G37*
G36*
X18318Y8452D02*
X18512Y8433D01*
X18697Y8405D01*
X18864Y8368D01*
X19021Y8322D01*
X19169Y8276D01*
X19298Y8220D01*
X19418Y8165D01*
X19520Y8109D01*
X19612Y8054D01*
X19686Y8008D01*
X19751Y7962D01*
X19806Y7925D01*
X19843Y7897D01*
X19862Y7878D01*
X19871Y7869D01*
X19982Y7749D01*
X20075Y7629D01*
X20158Y7499D01*
X20232Y7361D01*
X20287Y7231D01*
X20343Y7092D01*
X20417Y6834D01*
X20435Y6713D01*
X20454Y6603D01*
X20472Y6501D01*
X20482Y6417D01*
X20491Y6353D01*
Y6251D01*
X20472Y5964D01*
X20426Y5706D01*
X20371Y5475D01*
X20333Y5382D01*
X20297Y5290D01*
X20260Y5206D01*
X20223Y5132D01*
X20195Y5077D01*
X20167Y5021D01*
X20139Y4985D01*
X20121Y4957D01*
X20102Y4938D01*
Y4929D01*
X19936Y4744D01*
X19760Y4596D01*
X19575Y4467D01*
X19400Y4374D01*
X19243Y4300D01*
X19169Y4273D01*
X19113Y4245D01*
X19058Y4226D01*
X19021Y4217D01*
X19002Y4208D01*
X18993D01*
X18891Y5021D01*
X19067Y5095D01*
X19215Y5179D01*
X19344Y5262D01*
X19446Y5336D01*
X19520Y5401D01*
X19575Y5456D01*
X19612Y5502D01*
X19622Y5512D01*
X19696Y5632D01*
X19751Y5752D01*
X19788Y5881D01*
X19816Y5992D01*
X19834Y6094D01*
X19843Y6177D01*
Y6251D01*
X19834Y6362D01*
X19825Y6464D01*
X19779Y6649D01*
X19714Y6815D01*
X19640Y6963D01*
X19575Y7074D01*
X19511Y7157D01*
X19464Y7213D01*
X19446Y7222D01*
Y7231D01*
X19280Y7361D01*
X19095Y7462D01*
X18891Y7536D01*
X18706Y7592D01*
X18540Y7620D01*
X18466Y7638D01*
X18401Y7647D01*
X18346D01*
X18309Y7656D01*
X18281D01*
X18272D01*
Y4189D01*
X18179Y4180D01*
X18115D01*
X18078D01*
X18068D01*
X17856Y4189D01*
X17662Y4208D01*
X17477Y4236D01*
X17301Y4273D01*
X17144Y4319D01*
X16996Y4365D01*
X16866Y4421D01*
X16746Y4476D01*
X16635Y4531D01*
X16543Y4587D01*
X16469Y4633D01*
X16404Y4679D01*
X16349Y4716D01*
X16312Y4744D01*
X16293Y4763D01*
X16284Y4772D01*
X16173Y4883D01*
X16071Y5003D01*
X15988Y5132D01*
X15914Y5262D01*
X15849Y5391D01*
X15803Y5512D01*
X15757Y5641D01*
X15729Y5752D01*
X15702Y5872D01*
X15683Y5974D01*
X15664Y6066D01*
X15655Y6140D01*
X15646Y6205D01*
Y6297D01*
X15655Y6473D01*
X15674Y6639D01*
X15702Y6797D01*
X15748Y6945D01*
X15794Y7083D01*
X15849Y7213D01*
X15905Y7333D01*
X15970Y7435D01*
X16025Y7536D01*
X16090Y7620D01*
X16145Y7693D01*
X16192Y7749D01*
X16238Y7795D01*
X16265Y7832D01*
X16284Y7851D01*
X16293Y7860D01*
X16423Y7962D01*
X16561Y8054D01*
X16700Y8137D01*
X16848Y8211D01*
X17005Y8267D01*
X17153Y8313D01*
X17449Y8387D01*
X17578Y8415D01*
X17708Y8433D01*
X17819Y8442D01*
X17920Y8452D01*
X18004Y8461D01*
X18059D01*
X18105D01*
X18115D01*
X18318Y8452D01*
D02*
G37*
G36*
X20389Y2442D02*
X17967D01*
X17782Y2433D01*
X17615Y2423D01*
X17458Y2405D01*
X17320Y2377D01*
X17208Y2350D01*
X17125Y2331D01*
X17070Y2322D01*
X17051Y2313D01*
X16950Y2275D01*
X16866Y2229D01*
X16793Y2183D01*
X16728Y2137D01*
X16681Y2091D01*
X16645Y2063D01*
X16626Y2035D01*
X16617Y2026D01*
X16561Y1952D01*
X16524Y1869D01*
X16497Y1786D01*
X16478Y1721D01*
X16469Y1656D01*
X16460Y1610D01*
Y1564D01*
X16469Y1462D01*
X16487Y1360D01*
X16515Y1259D01*
X16543Y1175D01*
X16571Y1101D01*
X16598Y1046D01*
X16617Y1009D01*
X16626Y1000D01*
X15905Y713D01*
X15822Y870D01*
X15757Y1018D01*
X15711Y1147D01*
X15674Y1268D01*
X15655Y1369D01*
X15646Y1453D01*
Y1517D01*
X15655Y1619D01*
X15674Y1711D01*
X15702Y1804D01*
X15729Y1878D01*
X15757Y1933D01*
X15785Y1989D01*
X15803Y2017D01*
X15812Y2026D01*
X15886Y2109D01*
X15979Y2192D01*
X16090Y2275D01*
X16192Y2350D01*
X16293Y2423D01*
X16376Y2470D01*
X16441Y2507D01*
X16450Y2516D01*
X15748D01*
Y3228D01*
X20389D01*
Y2442D01*
D02*
G37*
G36*
X153996Y219351D02*
X154319Y219305D01*
X154467Y219277D01*
X154606Y219240D01*
X154735Y219213D01*
X154855Y219176D01*
X154966Y219139D01*
X155059Y219102D01*
X155142Y219065D01*
X155216Y219037D01*
X155271Y219009D01*
X155308Y218991D01*
X155336Y218981D01*
X155345Y218972D01*
X155475Y218889D01*
X155604Y218806D01*
X155826Y218612D01*
X156020Y218417D01*
X156177Y218214D01*
X156307Y218039D01*
X156353Y217964D01*
X156390Y217890D01*
X156427Y217835D01*
X156446Y217798D01*
X156455Y217770D01*
X156464Y217761D01*
X156594Y217456D01*
X156686Y217151D01*
X156760Y216855D01*
X156778Y216716D01*
X156806Y216587D01*
X156815Y216467D01*
X156834Y216365D01*
X156843Y216263D01*
Y216180D01*
X156852Y216115D01*
Y216069D01*
Y216032D01*
Y216023D01*
X156834Y215681D01*
X156788Y215357D01*
X156760Y215209D01*
X156732Y215071D01*
X156695Y214932D01*
X156658Y214812D01*
X156621Y214701D01*
X156584Y214608D01*
X156557Y214516D01*
X156529Y214451D01*
X156501Y214387D01*
X156482Y214349D01*
X156464Y214322D01*
Y214312D01*
X156298Y214044D01*
X156113Y213813D01*
X155919Y213610D01*
X155734Y213443D01*
X155558Y213314D01*
X155493Y213268D01*
X155428Y213221D01*
X155373Y213194D01*
X155336Y213166D01*
X155308Y213157D01*
X155299Y213148D01*
X155151Y213074D01*
X155003Y213018D01*
X154707Y212916D01*
X154421Y212852D01*
X154153Y212796D01*
X154032Y212787D01*
X153921Y212768D01*
X153820Y212759D01*
X153737D01*
X153672Y212750D01*
X153579D01*
X153321Y212759D01*
X153071Y212787D01*
X152840Y212833D01*
X152636Y212879D01*
X152553Y212898D01*
X152470Y212916D01*
X152396Y212944D01*
X152331Y212963D01*
X152285Y212981D01*
X152248Y212990D01*
X152230Y213000D01*
X152220D01*
X151971Y213101D01*
X151740Y213221D01*
X151518Y213351D01*
X151323Y213471D01*
X151240Y213527D01*
X151157Y213582D01*
X151092Y213628D01*
X151037Y213665D01*
X150991Y213702D01*
X150954Y213730D01*
X150935Y213739D01*
X150926Y213748D01*
Y216125D01*
X153644D01*
Y215366D01*
X151758D01*
Y214165D01*
X151869Y214072D01*
X151998Y213989D01*
X152137Y213915D01*
X152267Y213850D01*
X152378Y213795D01*
X152479Y213748D01*
X152516Y213730D01*
X152535Y213721D01*
X152553Y213711D01*
X152562D01*
X152757Y213647D01*
X152951Y213591D01*
X153126Y213554D01*
X153293Y213536D01*
X153432Y213517D01*
X153487D01*
X153542Y213508D01*
X153635D01*
X153866Y213517D01*
X154088Y213554D01*
X154291Y213601D01*
X154476Y213647D01*
X154624Y213702D01*
X154689Y213721D01*
X154735Y213739D01*
X154781Y213758D01*
X154809Y213776D01*
X154828Y213785D01*
X154837D01*
X155031Y213906D01*
X155207Y214035D01*
X155355Y214174D01*
X155475Y214312D01*
X155576Y214442D01*
X155641Y214544D01*
X155669Y214581D01*
X155678Y214608D01*
X155697Y214627D01*
Y214636D01*
X155789Y214867D01*
X155863Y215108D01*
X155909Y215348D01*
X155946Y215579D01*
X155955Y215681D01*
X155965Y215773D01*
X155974Y215866D01*
Y215940D01*
X155983Y215995D01*
Y216041D01*
Y216069D01*
Y216078D01*
X155974Y216337D01*
X155946Y216568D01*
X155909Y216790D01*
X155863Y216985D01*
X155845Y217068D01*
X155817Y217142D01*
X155798Y217206D01*
X155780Y217262D01*
X155761Y217308D01*
X155752Y217336D01*
X155743Y217354D01*
Y217363D01*
X155678Y217493D01*
X155613Y217613D01*
X155549Y217724D01*
X155484Y217817D01*
X155428Y217890D01*
X155382Y217955D01*
X155345Y217992D01*
X155336Y218001D01*
X155234Y218103D01*
X155123Y218196D01*
X155003Y218270D01*
X154892Y218344D01*
X154800Y218390D01*
X154726Y218436D01*
X154670Y218454D01*
X154652Y218464D01*
X154486Y218528D01*
X154319Y218575D01*
X154143Y218603D01*
X153986Y218630D01*
X153848Y218639D01*
X153792D01*
X153746Y218649D01*
X153644D01*
X153469Y218639D01*
X153302Y218621D01*
X153154Y218593D01*
X153025Y218566D01*
X152914Y218528D01*
X152830Y218501D01*
X152784Y218482D01*
X152766Y218473D01*
X152627Y218408D01*
X152507Y218334D01*
X152396Y218260D01*
X152313Y218186D01*
X152248Y218122D01*
X152193Y218076D01*
X152165Y218039D01*
X152156Y218029D01*
X152072Y217918D01*
X152008Y217789D01*
X151943Y217669D01*
X151888Y217539D01*
X151851Y217428D01*
X151823Y217345D01*
X151813Y217308D01*
X151804Y217280D01*
X151795Y217271D01*
Y217262D01*
X151028Y217465D01*
X151092Y217696D01*
X151176Y217900D01*
X151259Y218085D01*
X151333Y218233D01*
X151407Y218353D01*
X151462Y218436D01*
X151499Y218491D01*
X151518Y218510D01*
X151647Y218658D01*
X151786Y218778D01*
X151934Y218889D01*
X152072Y218981D01*
X152202Y219046D01*
X152303Y219102D01*
X152340Y219120D01*
X152368Y219130D01*
X152387Y219139D01*
X152396D01*
X152609Y219213D01*
X152830Y219268D01*
X153034Y219314D01*
X153228Y219342D01*
X153404Y219361D01*
X153478D01*
X153533Y219370D01*
X153829D01*
X153996Y219351D01*
D02*
G37*
G36*
X176000Y212861D02*
X175149D01*
Y215459D01*
X173513D01*
X173273Y215468D01*
X173041Y215487D01*
X172838Y215514D01*
X172653Y215551D01*
X172477Y215588D01*
X172330Y215635D01*
X172191Y215690D01*
X172071Y215746D01*
X171969Y215792D01*
X171877Y215847D01*
X171803Y215893D01*
X171747Y215940D01*
X171701Y215968D01*
X171673Y215995D01*
X171655Y216014D01*
X171645Y216023D01*
X171553Y216134D01*
X171470Y216245D01*
X171405Y216356D01*
X171340Y216476D01*
X171285Y216596D01*
X171248Y216707D01*
X171183Y216920D01*
X171165Y217022D01*
X171146Y217114D01*
X171137Y217197D01*
X171128Y217262D01*
X171118Y217327D01*
Y217363D01*
Y217391D01*
Y217400D01*
X171128Y217576D01*
X171146Y217743D01*
X171183Y217890D01*
X171211Y218020D01*
X171248Y218131D01*
X171285Y218214D01*
X171303Y218260D01*
X171313Y218279D01*
X171386Y218417D01*
X171479Y218538D01*
X171562Y218649D01*
X171645Y218732D01*
X171719Y218797D01*
X171775Y218852D01*
X171812Y218880D01*
X171830Y218889D01*
X171950Y218963D01*
X172089Y219028D01*
X172219Y219083D01*
X172339Y219130D01*
X172450Y219157D01*
X172533Y219176D01*
X172598Y219194D01*
X172616D01*
X172755Y219213D01*
X172912Y219231D01*
X173078Y219240D01*
X173236Y219250D01*
X173374Y219259D01*
X176000D01*
Y212861D01*
D02*
G37*
G36*
X170027D02*
X169177D01*
Y215699D01*
X168086D01*
X167984Y215690D01*
X167910D01*
X167845Y215681D01*
X167799Y215672D01*
X167762D01*
X167744Y215662D01*
X167734D01*
X167586Y215616D01*
X167522Y215588D01*
X167466Y215561D01*
X167411Y215533D01*
X167374Y215514D01*
X167355Y215505D01*
X167346Y215496D01*
X167272Y215441D01*
X167198Y215376D01*
X167059Y215237D01*
X166995Y215172D01*
X166949Y215117D01*
X166921Y215080D01*
X166912Y215071D01*
X166819Y214941D01*
X166717Y214802D01*
X166616Y214655D01*
X166514Y214516D01*
X166431Y214387D01*
X166366Y214285D01*
X166338Y214248D01*
X166320Y214220D01*
X166301Y214202D01*
Y214192D01*
X165460Y212861D01*
X164406D01*
X165506Y214599D01*
X165636Y214784D01*
X165756Y214950D01*
X165876Y215089D01*
X165978Y215219D01*
X166070Y215311D01*
X166144Y215385D01*
X166190Y215431D01*
X166209Y215450D01*
X166283Y215505D01*
X166366Y215570D01*
X166532Y215672D01*
X166607Y215709D01*
X166662Y215746D01*
X166699Y215764D01*
X166717Y215773D01*
X166551Y215801D01*
X166394Y215829D01*
X166255Y215875D01*
X166117Y215912D01*
X165996Y215958D01*
X165885Y216014D01*
X165784Y216060D01*
X165691Y216106D01*
X165617Y216162D01*
X165543Y216208D01*
X165488Y216245D01*
X165441Y216282D01*
X165404Y216310D01*
X165377Y216337D01*
X165368Y216346D01*
X165358Y216356D01*
X165284Y216448D01*
X165210Y216541D01*
X165099Y216735D01*
X165026Y216929D01*
X164970Y217114D01*
X164933Y217271D01*
X164924Y217336D01*
Y217400D01*
X164914Y217447D01*
Y217484D01*
Y217502D01*
Y217512D01*
X164924Y217706D01*
X164951Y217881D01*
X164998Y218048D01*
X165044Y218186D01*
X165099Y218307D01*
X165136Y218399D01*
X165173Y218454D01*
X165183Y218464D01*
Y218473D01*
X165294Y218621D01*
X165404Y218750D01*
X165525Y218861D01*
X165636Y218944D01*
X165737Y219009D01*
X165821Y219046D01*
X165876Y219074D01*
X165885Y219083D01*
X165895D01*
X165978Y219111D01*
X166080Y219139D01*
X166283Y219185D01*
X166505Y219213D01*
X166708Y219240D01*
X166902Y219250D01*
X166985D01*
X167059Y219259D01*
X170027D01*
Y212861D01*
D02*
G37*
G36*
X161031Y219361D02*
X161262Y219333D01*
X161484Y219287D01*
X161697Y219231D01*
X161891Y219157D01*
X162076Y219083D01*
X162243Y219000D01*
X162390Y218917D01*
X162529Y218834D01*
X162649Y218750D01*
X162751Y218676D01*
X162834Y218603D01*
X162899Y218547D01*
X162955Y218501D01*
X162982Y218473D01*
X162991Y218464D01*
X163139Y218288D01*
X163269Y218103D01*
X163389Y217900D01*
X163482Y217696D01*
X163565Y217484D01*
X163639Y217280D01*
X163694Y217077D01*
X163731Y216883D01*
X163768Y216698D01*
X163796Y216522D01*
X163814Y216365D01*
X163833Y216236D01*
Y216125D01*
X163842Y216041D01*
Y215986D01*
Y215977D01*
Y215968D01*
X163824Y215653D01*
X163787Y215366D01*
X163731Y215089D01*
X163694Y214969D01*
X163657Y214849D01*
X163629Y214747D01*
X163592Y214655D01*
X163565Y214571D01*
X163537Y214497D01*
X163518Y214442D01*
X163500Y214405D01*
X163482Y214377D01*
Y214368D01*
X163324Y214100D01*
X163158Y213869D01*
X162973Y213665D01*
X162797Y213499D01*
X162640Y213360D01*
X162575Y213305D01*
X162520Y213268D01*
X162464Y213231D01*
X162428Y213203D01*
X162409Y213194D01*
X162400Y213185D01*
X162261Y213111D01*
X162122Y213046D01*
X161845Y212935D01*
X161577Y212861D01*
X161327Y212806D01*
X161207Y212787D01*
X161105Y212778D01*
X161013Y212759D01*
X160930D01*
X160874Y212750D01*
X160782D01*
X160477Y212768D01*
X160190Y212815D01*
X159922Y212870D01*
X159802Y212907D01*
X159691Y212944D01*
X159589Y212981D01*
X159497Y213018D01*
X159423Y213046D01*
X159358Y213074D01*
X159302Y213101D01*
X159256Y213120D01*
X159238Y213138D01*
X159228D01*
X158970Y213305D01*
X158748Y213490D01*
X158563Y213684D01*
X158406Y213869D01*
X158276Y214044D01*
X158230Y214109D01*
X158193Y214174D01*
X158156Y214229D01*
X158138Y214266D01*
X158119Y214294D01*
Y214303D01*
X158045Y214451D01*
X157990Y214599D01*
X157888Y214895D01*
X157814Y215191D01*
X157768Y215459D01*
X157758Y215579D01*
X157740Y215690D01*
X157731Y215792D01*
Y215875D01*
X157722Y215949D01*
Y215995D01*
Y216032D01*
Y216041D01*
X157740Y216393D01*
X157777Y216716D01*
X157805Y216864D01*
X157842Y217012D01*
X157879Y217142D01*
X157906Y217262D01*
X157943Y217373D01*
X157980Y217474D01*
X158008Y217558D01*
X158045Y217632D01*
X158063Y217687D01*
X158082Y217724D01*
X158101Y217752D01*
Y217761D01*
X158249Y218029D01*
X158424Y218270D01*
X158609Y218473D01*
X158776Y218639D01*
X158933Y218769D01*
X159007Y218824D01*
X159062Y218871D01*
X159117Y218898D01*
X159155Y218926D01*
X159173Y218935D01*
X159182Y218944D01*
X159321Y219018D01*
X159460Y219083D01*
X159728Y219194D01*
X160005Y219268D01*
X160245Y219314D01*
X160356Y219333D01*
X160467Y219351D01*
X160551Y219361D01*
X160634D01*
X160699Y219370D01*
X160782D01*
X161031Y219361D01*
D02*
G37*
G36*
X89608Y230824D02*
X89099D01*
X89007Y230981D01*
X88905Y231129D01*
X88785Y231277D01*
X88674Y231407D01*
X88563Y231518D01*
X88480Y231610D01*
X88443Y231638D01*
X88415Y231666D01*
X88406Y231675D01*
X88396Y231684D01*
X88202Y231841D01*
X88008Y231989D01*
X87823Y232119D01*
X87638Y232220D01*
X87481Y232313D01*
X87416Y232350D01*
X87361Y232377D01*
X87315Y232405D01*
X87278Y232414D01*
X87259Y232433D01*
X87250D01*
Y233191D01*
X87389Y233136D01*
X87527Y233071D01*
X87666Y233006D01*
X87795Y232941D01*
X87906Y232886D01*
X87999Y232840D01*
X88054Y232803D01*
X88064Y232794D01*
X88073D01*
X88239Y232692D01*
X88387Y232590D01*
X88517Y232498D01*
X88618Y232414D01*
X88711Y232350D01*
X88766Y232294D01*
X88812Y232257D01*
X88822Y232248D01*
Y237250D01*
X89608D01*
Y230824D01*
D02*
G37*
G36*
X91743Y181768D02*
X91845Y181621D01*
X91965Y181473D01*
X92076Y181343D01*
X92187Y181232D01*
X92270Y181140D01*
X92307Y181112D01*
X92335Y181084D01*
X92344Y181075D01*
X92353Y181066D01*
X92548Y180909D01*
X92742Y180761D01*
X92927Y180631D01*
X93112Y180530D01*
X93269Y180437D01*
X93334Y180400D01*
X93389Y180372D01*
X93435Y180345D01*
X93472Y180336D01*
X93491Y180317D01*
X93500D01*
Y179559D01*
X93361Y179614D01*
X93223Y179679D01*
X93084Y179744D01*
X92955Y179809D01*
X92844Y179864D01*
X92751Y179910D01*
X92696Y179947D01*
X92686Y179956D01*
X92677D01*
X92511Y180058D01*
X92363Y180160D01*
X92233Y180252D01*
X92132Y180336D01*
X92039Y180400D01*
X91984Y180456D01*
X91938Y180493D01*
X91928Y180502D01*
Y175500D01*
X91142D01*
Y181926D01*
X91651D01*
X91743Y181768D01*
D02*
G37*
%LPC*%
G36*
X54599Y91972D02*
X54429Y91957D01*
X54352Y91910D01*
X54337Y91880D01*
X54183Y91725D01*
X54167Y91695D01*
X54129Y91656D01*
X54098Y91641D01*
X54059Y91602D01*
X54044Y91571D01*
X53975Y91502D01*
X53944Y91487D01*
X53921Y91463D01*
X53905Y91433D01*
X53751Y91279D01*
X53736Y91248D01*
X53443Y90955D01*
X53428Y90924D01*
X53389Y90886D01*
X53358Y90870D01*
X53281Y90778D01*
X53058Y90554D01*
X53042Y90524D01*
X52842Y90323D01*
X52827Y90293D01*
X52657Y90123D01*
X52642Y90092D01*
X52550Y90015D01*
X52534Y89984D01*
X52380Y89830D01*
X52365Y89799D01*
X52341Y89776D01*
X52311Y89761D01*
X52257Y89707D01*
X52241Y89676D01*
X51948Y89383D01*
X51933Y89353D01*
X51895Y89314D01*
X51864Y89299D01*
X51825Y89260D01*
X51810Y89229D01*
X51640Y89060D01*
X51633Y89037D01*
X51602Y89021D01*
X51517Y88937D01*
X51502Y88906D01*
X51448Y88852D01*
X51417Y88836D01*
X51394Y88813D01*
X51378Y88783D01*
X51209Y88613D01*
X51194Y88582D01*
X51140Y88544D01*
X51086Y88490D01*
X51070Y88459D01*
X51001Y88390D01*
X50970Y88374D01*
X50932Y88320D01*
X50778Y88166D01*
X50762Y88135D01*
X50739Y88112D01*
X50708Y88097D01*
X50654Y88043D01*
X50639Y88012D01*
X50469Y87843D01*
X50462Y87820D01*
X50431Y87804D01*
X50362Y87735D01*
X50346Y87704D01*
X50277Y87635D01*
X50246Y87619D01*
X50208Y87565D01*
X50069Y87427D01*
X50053Y87396D01*
X49761Y87103D01*
X49745Y87072D01*
X49560Y86887D01*
X49545Y86857D01*
X49491Y86803D01*
X49468Y86795D01*
X49453Y86764D01*
X49283Y86595D01*
X49268Y86564D01*
X48990Y86286D01*
X48975Y86256D01*
X48921Y86202D01*
X48890Y86186D01*
X48867Y86163D01*
X48852Y86132D01*
X48682Y85963D01*
X48667Y85932D01*
X48613Y85894D01*
X48559Y85840D01*
X48544Y85809D01*
X48489Y85755D01*
X48459Y85740D01*
X48436Y85716D01*
X48420Y85686D01*
X48389Y85655D01*
X48382Y85632D01*
X48351Y85616D01*
X48251Y85516D01*
X48235Y85485D01*
X48212Y85462D01*
X48181Y85447D01*
X48127Y85393D01*
X48112Y85362D01*
X48043Y85293D01*
X48012Y85277D01*
X47989Y85254D01*
X47973Y85223D01*
X47819Y85069D01*
X47804Y85038D01*
X47781Y85015D01*
X47750Y85000D01*
X47681Y84931D01*
X47665Y84900D01*
X47511Y84746D01*
X47503Y84723D01*
X47473Y84707D01*
X47388Y84622D01*
X47372Y84592D01*
X47319Y84538D01*
X47288Y84522D01*
X47265Y84499D01*
X47249Y84468D01*
X47080Y84299D01*
X47064Y84268D01*
X46787Y83991D01*
X46772Y83960D01*
X46494Y83683D01*
X46479Y83652D01*
X46186Y83359D01*
X46171Y83328D01*
X46017Y83174D01*
X46001Y83143D01*
X45978Y83120D01*
X45947Y83105D01*
X45893Y83051D01*
X45878Y83020D01*
X45809Y82951D01*
X45778Y82935D01*
X45739Y82881D01*
X45601Y82743D01*
X45585Y82712D01*
X45516Y82643D01*
X45485Y82627D01*
X45462Y82604D01*
X45447Y82573D01*
X45293Y82419D01*
X45277Y82388D01*
X45254Y82365D01*
X45223Y82350D01*
X45169Y82296D01*
X45154Y82265D01*
X45069Y82180D01*
X45038Y82165D01*
X45000Y82111D01*
X44861Y81972D01*
X44846Y81942D01*
X44807Y81903D01*
X44776Y81888D01*
X44722Y81834D01*
X44707Y81803D01*
X44638Y81734D01*
X44607Y81718D01*
X44568Y81664D01*
X44414Y81510D01*
X44399Y81479D01*
X44360Y81441D01*
X44330Y81426D01*
X44291Y81387D01*
X44276Y81356D01*
X44106Y81187D01*
X44098Y81164D01*
X44068Y81148D01*
X43998Y81079D01*
X43983Y81048D01*
X43706Y80771D01*
X43690Y80740D01*
X43397Y80447D01*
X43382Y80416D01*
X43212Y80247D01*
X43197Y80216D01*
X42920Y79939D01*
X42904Y79908D01*
X42850Y79854D01*
X42820Y79839D01*
X42781Y79784D01*
X42627Y79630D01*
X42612Y79600D01*
X42558Y79546D01*
X42527Y79530D01*
X42504Y79507D01*
X42488Y79476D01*
X42334Y79322D01*
X42319Y79292D01*
X42296Y79268D01*
X42265Y79253D01*
X42196Y79184D01*
X42180Y79153D01*
X42111Y79083D01*
X42080Y79068D01*
X42042Y79014D01*
X41903Y78875D01*
X41887Y78845D01*
X41849Y78806D01*
X41818Y78791D01*
X41764Y78737D01*
X41749Y78706D01*
X41664Y78621D01*
X41641Y78614D01*
X41625Y78583D01*
X41456Y78413D01*
X41441Y78383D01*
X41402Y78344D01*
X41371Y78328D01*
X41333Y78290D01*
X41317Y78259D01*
X41025Y77966D01*
X41009Y77936D01*
X40955Y77882D01*
X40925Y77866D01*
X40886Y77812D01*
X40732Y77658D01*
X40717Y77628D01*
X40678Y77589D01*
X40647Y77574D01*
X40609Y77535D01*
X40593Y77504D01*
X40439Y77350D01*
X40424Y77319D01*
X40131Y77027D01*
X40115Y76996D01*
X39838Y76718D01*
X39823Y76688D01*
X39669Y76534D01*
X39653Y76503D01*
X39615Y76464D01*
X39584Y76449D01*
X39530Y76395D01*
X39515Y76333D01*
X39553Y76233D01*
X39592Y76179D01*
X39646Y76141D01*
X39684Y76102D01*
X39699Y76071D01*
X39769Y75987D01*
X39800Y75971D01*
X39823Y75948D01*
X39838Y75917D01*
X39977Y75779D01*
X39992Y75748D01*
X40131Y75609D01*
X40146Y75578D01*
X40300Y75424D01*
X40316Y75393D01*
X40339Y75370D01*
X40370Y75355D01*
X40393Y75332D01*
X40408Y75301D01*
X40439Y75270D01*
X40455Y75239D01*
X40593Y75101D01*
X40609Y75070D01*
X40732Y74947D01*
X40747Y74916D01*
X40870Y74792D01*
X40886Y74762D01*
X41025Y74623D01*
X41040Y74592D01*
X41179Y74454D01*
X41194Y74423D01*
X41317Y74300D01*
X41333Y74269D01*
X41402Y74199D01*
X41433Y74184D01*
X41487Y74115D01*
X41502Y74084D01*
X41556Y74045D01*
X41595Y74007D01*
X41610Y73976D01*
X41749Y73837D01*
X41764Y73806D01*
X41903Y73668D01*
X41918Y73637D01*
X42042Y73514D01*
X42057Y73483D01*
X42196Y73344D01*
X42211Y73313D01*
X42319Y73205D01*
X42334Y73175D01*
X42380Y73128D01*
X42396Y73098D01*
X42519Y72974D01*
X42534Y72944D01*
X42573Y72905D01*
X42604Y72890D01*
X42627Y72867D01*
X42642Y72836D01*
X42673Y72805D01*
X42681Y72782D01*
X42712Y72766D01*
X42797Y72682D01*
X42812Y72651D01*
X42835Y72612D01*
X42866Y72597D01*
X42935Y72528D01*
X42951Y72497D01*
X43105Y72343D01*
X43120Y72312D01*
X43158Y72273D01*
X43189Y72258D01*
X43212Y72235D01*
X43228Y72204D01*
X43259Y72173D01*
X43274Y72142D01*
X43297Y72119D01*
X43328Y72104D01*
X43351Y72081D01*
X43366Y72050D01*
X43413Y72004D01*
X43421Y71981D01*
X43451Y71965D01*
X43505Y71911D01*
X43521Y71880D01*
X43659Y71742D01*
X43675Y71711D01*
X43706Y71680D01*
X43721Y71649D01*
X43844Y71526D01*
X43860Y71495D01*
X43983Y71372D01*
X43998Y71341D01*
X44137Y71203D01*
X44152Y71172D01*
X44291Y71033D01*
X44306Y71002D01*
X44345Y70964D01*
X44376Y70948D01*
X44414Y70910D01*
X44430Y70879D01*
X44484Y70810D01*
X44514Y70794D01*
X44553Y70756D01*
X44568Y70725D01*
X44707Y70586D01*
X44722Y70555D01*
X44861Y70417D01*
X44876Y70386D01*
X45015Y70247D01*
X45031Y70216D01*
X45154Y70093D01*
X45169Y70062D01*
X45293Y69939D01*
X45308Y69908D01*
X45354Y69862D01*
X45370Y69831D01*
X45447Y69770D01*
X45462Y69739D01*
X45531Y69654D01*
X45585Y69616D01*
X45601Y69585D01*
X45631Y69554D01*
X45647Y69523D01*
X45670Y69500D01*
X45701Y69485D01*
X45755Y69431D01*
X45770Y69400D01*
X45909Y69261D01*
X45924Y69230D01*
X46063Y69092D01*
X46078Y69061D01*
X46117Y69022D01*
X46148Y69007D01*
X46171Y68984D01*
X46186Y68953D01*
X46325Y68814D01*
X46340Y68784D01*
X46371Y68753D01*
X46386Y68722D01*
X46440Y68683D01*
X46463Y68660D01*
X46479Y68629D01*
X46602Y68506D01*
X46617Y68475D01*
X46710Y68383D01*
X46718Y68360D01*
X46741Y68352D01*
X46756Y68321D01*
X46802Y68275D01*
X46818Y68244D01*
X46957Y68106D01*
X46972Y68075D01*
X47095Y67952D01*
X47111Y67921D01*
X47249Y67782D01*
X47265Y67751D01*
X47303Y67713D01*
X47334Y67697D01*
X47372Y67659D01*
X47388Y67628D01*
X47426Y67574D01*
X47457Y67559D01*
X47527Y67489D01*
X47542Y67459D01*
X47665Y67335D01*
X47681Y67304D01*
X47819Y67166D01*
X47835Y67135D01*
X47889Y67081D01*
X47920Y67066D01*
X47943Y67042D01*
X47958Y67012D01*
X48027Y66927D01*
X48143Y66811D01*
X48158Y66781D01*
X48266Y66673D01*
X48281Y66642D01*
X48328Y66596D01*
X48335Y66573D01*
X48366Y66557D01*
X48405Y66519D01*
X48420Y66488D01*
X48467Y66442D01*
X48474Y66418D01*
X48505Y66403D01*
X48559Y66349D01*
X48574Y66318D01*
X48713Y66180D01*
X48728Y66149D01*
X48867Y66010D01*
X48882Y65979D01*
X48936Y65925D01*
X48967Y65910D01*
X48990Y65887D01*
X49006Y65856D01*
X49060Y65787D01*
X49090Y65771D01*
X49144Y65717D01*
X49160Y65687D01*
X49191Y65656D01*
X49198Y65633D01*
X49229Y65617D01*
X49283Y65563D01*
X49299Y65533D01*
X49437Y65394D01*
X49453Y65363D01*
X49591Y65224D01*
X49607Y65194D01*
X49730Y65070D01*
X49745Y65040D01*
X49776Y65009D01*
X49791Y64978D01*
X49915Y64855D01*
X49930Y64824D01*
X50069Y64685D01*
X50084Y64654D01*
X50138Y64600D01*
X50161Y64593D01*
X50177Y64562D01*
X50208Y64531D01*
X50223Y64500D01*
X50277Y64446D01*
X50308Y64431D01*
X50331Y64408D01*
X50346Y64377D01*
X50385Y64323D01*
X50416Y64308D01*
X50485Y64238D01*
X50500Y64208D01*
X50639Y64069D01*
X50654Y64038D01*
X50778Y63915D01*
X50793Y63884D01*
X50847Y63830D01*
X50878Y63815D01*
X50916Y63761D01*
X50947Y63730D01*
X50963Y63699D01*
X50986Y63676D01*
X51016Y63661D01*
X51040Y63637D01*
X51055Y63607D01*
X51101Y63560D01*
X51116Y63530D01*
X51240Y63406D01*
X51255Y63376D01*
X51378Y63252D01*
X51394Y63221D01*
X51425Y63191D01*
X51440Y63160D01*
X51494Y63121D01*
X51517Y63098D01*
X51533Y63067D01*
X51671Y62929D01*
X51687Y62898D01*
X51825Y62759D01*
X51841Y62728D01*
X51979Y62590D01*
X51995Y62559D01*
X52033Y62520D01*
X52064Y62505D01*
X52103Y62467D01*
X52118Y62436D01*
X52257Y62297D01*
X52272Y62266D01*
X52395Y62143D01*
X52411Y62112D01*
X52550Y61973D01*
X52565Y61943D01*
X52703Y61804D01*
X52719Y61773D01*
X52765Y61727D01*
X52773Y61704D01*
X52804Y61688D01*
X52827Y61665D01*
X52842Y61634D01*
X52904Y61573D01*
X52919Y61542D01*
X52973Y61504D01*
X53096Y61349D01*
X53166Y61280D01*
X53181Y61249D01*
X53220Y61211D01*
X53250Y61195D01*
X53289Y61157D01*
X53304Y61126D01*
X53443Y60987D01*
X53458Y60957D01*
X53597Y60818D01*
X53613Y60787D01*
X53667Y60733D01*
X53697Y60718D01*
X53790Y60594D01*
X53821Y60579D01*
X53875Y60525D01*
X53890Y60494D01*
X53944Y60425D01*
X53975Y60410D01*
X53998Y60386D01*
X54013Y60356D01*
X54090Y60279D01*
X54098Y60255D01*
X54129Y60240D01*
X54167Y60186D01*
X54275Y60078D01*
X54290Y60047D01*
X54352Y59986D01*
X54367Y59955D01*
X54406Y59917D01*
X54483Y59886D01*
X62965Y59878D01*
X63027Y59893D01*
X63057Y59924D01*
X63073Y59986D01*
X63050Y61519D01*
X63034Y91903D01*
X63004Y91949D01*
X62942Y91964D01*
X61632D01*
X54599Y91972D01*
D02*
G37*
%LPD*%
G36*
X51248Y81872D02*
X51294Y81857D01*
X51579Y81865D01*
X51633Y81841D01*
X51671Y81803D01*
X51702Y81680D01*
X51687Y80647D01*
X51671Y77628D01*
X51717Y77551D01*
X51740Y77527D01*
X51802Y77512D01*
X51910Y77527D01*
X60230Y77512D01*
X60330Y77443D01*
X60346Y77381D01*
X60361Y76580D01*
X60377Y75409D01*
X60392Y74931D01*
X60377Y74685D01*
X60338Y74646D01*
X60276Y74631D01*
X60084Y74638D01*
X56594Y74631D01*
X56578D01*
X51748Y74638D01*
X51694Y74600D01*
X51671Y74531D01*
X51656Y70324D01*
X51617Y70286D01*
X51556Y70270D01*
X51325Y70286D01*
X51278Y70270D01*
X51217Y70286D01*
X49067Y70293D01*
X48952Y70286D01*
X48844Y70347D01*
X48805Y70432D01*
X48790Y70540D01*
X48775Y74546D01*
X48721Y74615D01*
X48597Y74646D01*
X48420Y74638D01*
X44553Y74654D01*
X44476Y74685D01*
X44445Y74762D01*
X44453Y74954D01*
X44437Y76711D01*
X44430Y77396D01*
X44445Y77443D01*
X44461Y77473D01*
X44499Y77512D01*
X44561Y77527D01*
X48721Y77543D01*
X48805Y77612D01*
X48821Y77720D01*
X48805Y78752D01*
X48782Y81518D01*
X48775Y81803D01*
X48813Y81857D01*
X48890Y81888D01*
X51248Y81872D01*
D02*
G37*
%LPC*%
G36*
X164947Y81172D02*
X164799D01*
X163766Y81025D01*
X162437Y80286D01*
X162068Y80065D01*
X161846Y79253D01*
X162068Y78736D01*
X162437Y78367D01*
X163397Y77998D01*
X164209Y77776D01*
X164947Y77628D01*
X165390Y77776D01*
X166571Y77924D01*
X167236Y78440D01*
X167383Y79031D01*
X167236Y79770D01*
X166719Y80286D01*
X166424Y80434D01*
X166128Y80729D01*
X165390Y81025D01*
X164947Y81172D01*
D02*
G37*
G36*
X123012Y58728D02*
X122569Y58580D01*
X122348Y57916D01*
X122495Y56882D01*
X122717Y56661D01*
X123160Y56809D01*
X123381Y57621D01*
X123234Y58359D01*
Y58507D01*
X123012Y58728D01*
D02*
G37*
G36*
X118730Y55627D02*
X118139Y55480D01*
X117918Y55111D01*
Y54963D01*
X117179Y53929D01*
X117327Y53339D01*
X117401Y53265D01*
X118213Y53929D01*
X118435Y54151D01*
X118730Y54298D01*
X118952Y54520D01*
X119099Y55111D01*
X118952Y55406D01*
X118730Y55627D01*
D02*
G37*
G36*
X123898Y48540D02*
X123160Y48392D01*
X122864Y48097D01*
X122569Y47949D01*
X121905Y47285D01*
X121609Y46251D01*
X122274Y45439D01*
X122864Y45291D01*
X123677Y45217D01*
X126187Y45365D01*
X126777Y45513D01*
X126999Y45587D01*
X127147D01*
X127885Y45882D01*
X128475Y46029D01*
X128992Y46399D01*
X128845Y46989D01*
X128623Y47211D01*
X128033Y47358D01*
X126187Y47285D01*
X125596Y47432D01*
X124710Y48170D01*
X124489Y48392D01*
X123898Y48540D01*
D02*
G37*
G36*
X169200Y241430D02*
X169163D01*
X169145D01*
X169136D01*
X168886Y241412D01*
X168673Y241375D01*
X168489Y241319D01*
X168331Y241254D01*
X168211Y241180D01*
X168119Y241125D01*
X168063Y241088D01*
X168054Y241070D01*
X168045D01*
X167971Y241005D01*
X167915Y240931D01*
X167814Y240783D01*
X167749Y240635D01*
X167693Y240506D01*
X167666Y240385D01*
X167656Y240293D01*
X167647Y240256D01*
Y240210D01*
X167656Y240080D01*
X167675Y239960D01*
X167712Y239849D01*
X167749Y239757D01*
X167777Y239673D01*
X167814Y239609D01*
X167832Y239572D01*
X167841Y239553D01*
X167925Y239442D01*
X168008Y239350D01*
X168109Y239267D01*
X168193Y239202D01*
X168276Y239146D01*
X168341Y239109D01*
X168387Y239082D01*
X168405Y239072D01*
X168544Y239017D01*
X168683Y238980D01*
X168812Y238943D01*
X168932Y238925D01*
X169034Y238915D01*
X169117Y238906D01*
X169163D01*
X169182D01*
X169404Y238925D01*
X169598Y238962D01*
X169774Y239026D01*
X169912Y239091D01*
X170033Y239156D01*
X170116Y239220D01*
X170162Y239257D01*
X170180Y239276D01*
X170310Y239424D01*
X170402Y239572D01*
X170476Y239729D01*
X170523Y239868D01*
X170550Y239997D01*
X170560Y240089D01*
X170569Y240126D01*
Y240182D01*
X170550Y240376D01*
X170504Y240552D01*
X170449Y240700D01*
X170375Y240829D01*
X170301Y240931D01*
X170245Y241005D01*
X170199Y241051D01*
X170180Y241070D01*
X170023Y241190D01*
X169857Y241282D01*
X169681Y241347D01*
X169515Y241384D01*
X169367Y241412D01*
X169302Y241421D01*
X169247D01*
X169200Y241430D01*
D02*
G37*
G36*
X25329Y93899D02*
X23212D01*
Y91884D01*
X23221Y91634D01*
X23258Y91422D01*
X23305Y91237D01*
X23360Y91098D01*
X23416Y90978D01*
X23462Y90904D01*
X23499Y90858D01*
X23508Y90839D01*
X23628Y90728D01*
X23749Y90645D01*
X23878Y90590D01*
X23989Y90543D01*
X24100Y90525D01*
X24183Y90515D01*
X24239Y90506D01*
X24248D01*
X24257D01*
X24368Y90515D01*
X24479Y90534D01*
X24571Y90562D01*
X24655Y90590D01*
X24729Y90626D01*
X24784Y90654D01*
X24821Y90673D01*
X24830Y90682D01*
X24923Y90747D01*
X25006Y90830D01*
X25071Y90913D01*
X25126Y90996D01*
X25163Y91070D01*
X25191Y91126D01*
X25209Y91163D01*
X25219Y91181D01*
X25255Y91311D01*
X25283Y91459D01*
X25302Y91607D01*
X25311Y91755D01*
X25320Y91884D01*
X25329Y91995D01*
Y93899D01*
D02*
G37*
G36*
X26134Y87825D02*
X25921Y87797D01*
X25727Y87742D01*
X25561Y87677D01*
X25431Y87603D01*
X25320Y87538D01*
X25237Y87474D01*
X25191Y87437D01*
X25172Y87418D01*
X25052Y87270D01*
X24960Y87122D01*
X24895Y86965D01*
X24849Y86817D01*
X24821Y86697D01*
X24812Y86595D01*
X24802Y86558D01*
Y86503D01*
X24812Y86392D01*
X24821Y86290D01*
X24876Y86096D01*
X24950Y85930D01*
X25034Y85791D01*
X25117Y85680D01*
X25191Y85597D01*
X25246Y85551D01*
X25255Y85532D01*
X25265D01*
X25385Y85449D01*
X25524Y85375D01*
X25662Y85329D01*
X25810Y85282D01*
X25930Y85255D01*
X26041Y85236D01*
X26078D01*
X26106Y85227D01*
X26125D01*
X26134D01*
Y87825D01*
D02*
G37*
G36*
X26365Y69160D02*
X24497Y68467D01*
X24266Y68383D01*
X24044Y68319D01*
X23841Y68254D01*
X23656Y68208D01*
X23499Y68171D01*
X23434Y68152D01*
X23369Y68143D01*
X23332Y68125D01*
X23296D01*
X23277Y68115D01*
X23268D01*
X23480Y68051D01*
X23702Y67977D01*
X23924Y67903D01*
X24137Y67829D01*
X24229Y67792D01*
X24322Y67764D01*
X24405Y67736D01*
X24470Y67709D01*
X24525Y67690D01*
X24571Y67672D01*
X24599Y67662D01*
X24608D01*
X26365Y66997D01*
Y69160D01*
D02*
G37*
G36*
X9153Y87890D02*
X9088D01*
X9051D01*
X9042D01*
X8783Y87880D01*
X8543Y87862D01*
X8311Y87834D01*
X8108Y87788D01*
X7923Y87742D01*
X7757Y87686D01*
X7599Y87622D01*
X7470Y87566D01*
X7350Y87501D01*
X7248Y87446D01*
X7165Y87390D01*
X7100Y87344D01*
X7045Y87298D01*
X7008Y87270D01*
X6989Y87252D01*
X6980Y87243D01*
X6869Y87122D01*
X6777Y86993D01*
X6693Y86863D01*
X6619Y86725D01*
X6564Y86595D01*
X6508Y86466D01*
X6435Y86226D01*
X6416Y86115D01*
X6398Y86013D01*
X6379Y85930D01*
X6370Y85847D01*
X6360Y85782D01*
Y85699D01*
X6370Y85467D01*
X6407Y85246D01*
X6462Y85051D01*
X6518Y84885D01*
X6582Y84746D01*
X6610Y84691D01*
X6629Y84645D01*
X6656Y84598D01*
X6666Y84571D01*
X6684Y84561D01*
Y84552D01*
X6814Y84376D01*
X6962Y84219D01*
X7109Y84081D01*
X7257Y83970D01*
X7387Y83886D01*
X7498Y83822D01*
X7535Y83803D01*
X7563Y83785D01*
X7581Y83776D01*
X7590D01*
X7812Y83683D01*
X8052Y83618D01*
X8274Y83572D01*
X8487Y83544D01*
X8589Y83526D01*
X8672Y83517D01*
X8755D01*
X8820Y83507D01*
X8875D01*
X8912D01*
X8940D01*
X8949D01*
X9171Y83517D01*
X9384Y83535D01*
X9587Y83563D01*
X9772Y83600D01*
X9939Y83655D01*
X10096Y83701D01*
X10244Y83757D01*
X10373Y83813D01*
X10484Y83877D01*
X10586Y83933D01*
X10669Y83979D01*
X10734Y84025D01*
X10789Y84071D01*
X10835Y84099D01*
X10854Y84118D01*
X10863Y84127D01*
X10983Y84247D01*
X11085Y84376D01*
X11168Y84506D01*
X11251Y84635D01*
X11316Y84765D01*
X11362Y84903D01*
X11409Y85024D01*
X11446Y85153D01*
X11473Y85264D01*
X11492Y85375D01*
X11510Y85467D01*
X11520Y85551D01*
Y85615D01*
X11529Y85662D01*
Y85708D01*
X11520Y85884D01*
X11501Y86050D01*
X11464Y86198D01*
X11427Y86346D01*
X11372Y86484D01*
X11316Y86614D01*
X11261Y86734D01*
X11196Y86845D01*
X11131Y86938D01*
X11076Y87021D01*
X11020Y87095D01*
X10965Y87159D01*
X10928Y87206D01*
X10891Y87243D01*
X10872Y87261D01*
X10863Y87270D01*
X10734Y87381D01*
X10595Y87474D01*
X10447Y87557D01*
X10299Y87631D01*
X10142Y87686D01*
X9994Y87742D01*
X9698Y87816D01*
X9569Y87834D01*
X9439Y87853D01*
X9328Y87871D01*
X9236Y87880D01*
X9153Y87890D01*
D02*
G37*
G36*
X8570Y68770D02*
X6453D01*
Y66754D01*
X6462Y66505D01*
X6499Y66292D01*
X6546Y66107D01*
X6601Y65968D01*
X6656Y65848D01*
X6703Y65774D01*
X6740Y65728D01*
X6749Y65710D01*
X6869Y65599D01*
X6989Y65515D01*
X7119Y65460D01*
X7230Y65414D01*
X7341Y65395D01*
X7424Y65386D01*
X7479Y65377D01*
X7488D01*
X7498D01*
X7609Y65386D01*
X7720Y65405D01*
X7812Y65432D01*
X7895Y65460D01*
X7969Y65497D01*
X8025Y65525D01*
X8062Y65543D01*
X8071Y65552D01*
X8163Y65617D01*
X8247Y65700D01*
X8311Y65784D01*
X8367Y65867D01*
X8404Y65941D01*
X8432Y65996D01*
X8450Y66033D01*
X8459Y66052D01*
X8496Y66181D01*
X8524Y66329D01*
X8543Y66477D01*
X8552Y66625D01*
X8561Y66754D01*
X8570Y66865D01*
Y68770D01*
D02*
G37*
G36*
X9504Y62039D02*
X7636Y61346D01*
X7405Y61262D01*
X7183Y61198D01*
X6980Y61133D01*
X6795Y61087D01*
X6638Y61050D01*
X6573Y61031D01*
X6508Y61022D01*
X6471Y61004D01*
X6435D01*
X6416Y60994D01*
X6407D01*
X6619Y60930D01*
X6841Y60856D01*
X7063Y60782D01*
X7276Y60708D01*
X7368Y60671D01*
X7461Y60643D01*
X7544Y60615D01*
X7609Y60588D01*
X7664Y60569D01*
X7710Y60551D01*
X7738Y60541D01*
X7747D01*
X9504Y59876D01*
Y62039D01*
D02*
G37*
G36*
X17625Y87640D02*
X17412Y87612D01*
X17218Y87557D01*
X17051Y87492D01*
X16922Y87418D01*
X16811Y87353D01*
X16728Y87289D01*
X16681Y87252D01*
X16663Y87233D01*
X16543Y87085D01*
X16450Y86938D01*
X16386Y86780D01*
X16339Y86632D01*
X16312Y86512D01*
X16302Y86411D01*
X16293Y86374D01*
Y86318D01*
X16302Y86207D01*
X16312Y86105D01*
X16367Y85911D01*
X16441Y85745D01*
X16524Y85606D01*
X16608Y85495D01*
X16681Y85412D01*
X16737Y85366D01*
X16746Y85347D01*
X16755D01*
X16876Y85264D01*
X17014Y85190D01*
X17153Y85144D01*
X17301Y85098D01*
X17421Y85070D01*
X17532Y85051D01*
X17569D01*
X17597Y85042D01*
X17615D01*
X17625D01*
Y87640D01*
D02*
G37*
G36*
X18152Y80752D02*
X18105D01*
X18078D01*
X18068D01*
X17911Y80743D01*
X17754Y80734D01*
X17615Y80715D01*
X17486Y80687D01*
X17366Y80660D01*
X17255Y80632D01*
X17162Y80595D01*
X17070Y80558D01*
X16996Y80521D01*
X16922Y80484D01*
X16866Y80456D01*
X16820Y80429D01*
X16783Y80401D01*
X16755Y80382D01*
X16746Y80364D01*
X16737D01*
X16663Y80290D01*
X16589Y80207D01*
X16478Y80049D01*
X16404Y79883D01*
X16349Y79726D01*
X16312Y79587D01*
X16302Y79486D01*
X16293Y79439D01*
Y79384D01*
X16302Y79273D01*
X16312Y79171D01*
X16358Y78986D01*
X16432Y78820D01*
X16515Y78681D01*
X16598Y78570D01*
X16663Y78487D01*
X16718Y78432D01*
X16728Y78413D01*
X16737D01*
X16820Y78339D01*
X16922Y78284D01*
X17125Y78182D01*
X17347Y78108D01*
X17551Y78062D01*
X17745Y78034D01*
X17828Y78025D01*
X17902D01*
X17957Y78015D01*
X18004D01*
X18031D01*
X18041D01*
X18207D01*
X18364Y78034D01*
X18503Y78052D01*
X18642Y78080D01*
X18762Y78108D01*
X18873Y78145D01*
X18974Y78173D01*
X19067Y78210D01*
X19141Y78247D01*
X19215Y78284D01*
X19270Y78321D01*
X19317Y78348D01*
X19353Y78376D01*
X19381Y78394D01*
X19390Y78404D01*
X19400Y78413D01*
X19474Y78487D01*
X19548Y78570D01*
X19659Y78727D01*
X19733Y78894D01*
X19788Y79042D01*
X19816Y79180D01*
X19834Y79282D01*
X19843Y79328D01*
Y79384D01*
X19834Y79495D01*
X19825Y79597D01*
X19779Y79791D01*
X19705Y79957D01*
X19622Y80096D01*
X19548Y80207D01*
X19474Y80290D01*
X19427Y80345D01*
X19409Y80355D01*
Y80364D01*
X19317Y80429D01*
X19224Y80493D01*
X19011Y80586D01*
X18789Y80660D01*
X18568Y80706D01*
X18374Y80734D01*
X18290Y80743D01*
X18216D01*
X18152Y80752D01*
D02*
G37*
G36*
X19196Y65774D02*
X19150D01*
X19141D01*
X19067Y65765D01*
X18993Y65756D01*
X18937Y65737D01*
X18882Y65719D01*
X18836Y65700D01*
X18799Y65691D01*
X18780Y65673D01*
X18771D01*
X18660Y65580D01*
X18586Y65469D01*
X18558Y65432D01*
X18540Y65395D01*
X18521Y65367D01*
Y65358D01*
X18484Y65266D01*
X18457Y65164D01*
X18429Y65053D01*
X18411Y64942D01*
X18392Y64840D01*
X18374Y64748D01*
X18364Y64693D01*
Y64674D01*
X18336Y64517D01*
X18318Y64369D01*
X18290Y64240D01*
X18262Y64110D01*
X18235Y63990D01*
X18207Y63888D01*
X18189Y63787D01*
X18161Y63703D01*
X18142Y63629D01*
X18124Y63565D01*
X18105Y63509D01*
X18087Y63463D01*
X18078Y63426D01*
X18068Y63398D01*
X18059Y63389D01*
Y63380D01*
X18355Y63389D01*
X18540Y63398D01*
X18697Y63407D01*
X18827Y63426D01*
X18937Y63454D01*
X19021Y63481D01*
X19085Y63500D01*
X19122Y63509D01*
X19132Y63518D01*
X19252Y63592D01*
X19363Y63666D01*
X19455Y63759D01*
X19529Y63842D01*
X19594Y63916D01*
X19640Y63981D01*
X19668Y64018D01*
X19677Y64036D01*
X19742Y64175D01*
X19788Y64314D01*
X19825Y64443D01*
X19843Y64572D01*
X19862Y64674D01*
X19871Y64767D01*
Y64840D01*
X19862Y65007D01*
X19843Y65146D01*
X19806Y65266D01*
X19770Y65367D01*
X19733Y65441D01*
X19696Y65497D01*
X19677Y65534D01*
X19668Y65543D01*
X19585Y65617D01*
X19492Y65673D01*
X19409Y65719D01*
X19326Y65747D01*
X19252Y65765D01*
X19196Y65774D01*
D02*
G37*
G36*
X19631Y46996D02*
X14749D01*
Y45517D01*
X14758Y45397D01*
Y45277D01*
X14768Y45166D01*
X14795Y44981D01*
X14814Y44833D01*
X14842Y44713D01*
X14869Y44630D01*
X14879Y44583D01*
X14888Y44565D01*
X14971Y44398D01*
X15073Y44241D01*
X15193Y44103D01*
X15313Y43982D01*
X15424Y43890D01*
X15517Y43816D01*
X15554Y43797D01*
X15581Y43779D01*
X15600Y43760D01*
X15609D01*
X15711Y43705D01*
X15831Y43650D01*
X16071Y43566D01*
X16330Y43511D01*
X16580Y43465D01*
X16691Y43455D01*
X16802Y43446D01*
X16894Y43437D01*
X16977D01*
X17051Y43428D01*
X17098D01*
X17135D01*
X17144D01*
X17403Y43437D01*
X17643Y43455D01*
X17856Y43483D01*
X18041Y43511D01*
X18115Y43529D01*
X18179Y43548D01*
X18244Y43566D01*
X18290Y43576D01*
X18327Y43585D01*
X18355Y43594D01*
X18374Y43603D01*
X18383D01*
X18558Y43668D01*
X18716Y43742D01*
X18854Y43825D01*
X18974Y43899D01*
X19067Y43964D01*
X19132Y44019D01*
X19169Y44056D01*
X19187Y44066D01*
X19261Y44158D01*
X19326Y44250D01*
X19381Y44343D01*
X19437Y44435D01*
X19474Y44519D01*
X19501Y44583D01*
X19511Y44630D01*
X19520Y44648D01*
X19557Y44787D01*
X19585Y44953D01*
X19603Y45120D01*
X19612Y45277D01*
X19622Y45416D01*
X19631Y45480D01*
Y46996D01*
D02*
G37*
G36*
X18152Y32046D02*
X18105D01*
X18078D01*
X18068D01*
X17911Y32037D01*
X17754Y32028D01*
X17615Y32009D01*
X17486Y31982D01*
X17366Y31954D01*
X17255Y31926D01*
X17162Y31889D01*
X17070Y31852D01*
X16996Y31815D01*
X16922Y31778D01*
X16866Y31751D01*
X16820Y31723D01*
X16783Y31695D01*
X16755Y31676D01*
X16746Y31658D01*
X16737D01*
X16663Y31584D01*
X16589Y31501D01*
X16478Y31344D01*
X16404Y31177D01*
X16349Y31020D01*
X16312Y30881D01*
X16302Y30780D01*
X16293Y30733D01*
Y30678D01*
X16302Y30567D01*
X16312Y30465D01*
X16358Y30280D01*
X16432Y30114D01*
X16515Y29975D01*
X16598Y29864D01*
X16663Y29781D01*
X16718Y29726D01*
X16728Y29707D01*
X16737D01*
X16820Y29633D01*
X16922Y29578D01*
X17125Y29476D01*
X17347Y29402D01*
X17551Y29356D01*
X17745Y29328D01*
X17828Y29319D01*
X17902D01*
X17957Y29310D01*
X18004D01*
X18031D01*
X18041D01*
X18207D01*
X18364Y29328D01*
X18503Y29347D01*
X18642Y29374D01*
X18762Y29402D01*
X18873Y29439D01*
X18974Y29467D01*
X19067Y29504D01*
X19141Y29541D01*
X19215Y29578D01*
X19270Y29615D01*
X19317Y29643D01*
X19353Y29670D01*
X19381Y29689D01*
X19390Y29698D01*
X19400Y29707D01*
X19474Y29781D01*
X19548Y29864D01*
X19659Y30022D01*
X19733Y30188D01*
X19788Y30336D01*
X19816Y30475D01*
X19834Y30576D01*
X19843Y30622D01*
Y30678D01*
X19834Y30789D01*
X19825Y30891D01*
X19779Y31085D01*
X19705Y31251D01*
X19622Y31390D01*
X19548Y31501D01*
X19474Y31584D01*
X19427Y31639D01*
X19409Y31649D01*
Y31658D01*
X19317Y31723D01*
X19224Y31788D01*
X19011Y31880D01*
X18789Y31954D01*
X18568Y32000D01*
X18374Y32028D01*
X18290Y32037D01*
X18216D01*
X18152Y32046D01*
D02*
G37*
G36*
Y16634D02*
X18105D01*
X18078D01*
X18068D01*
X17911Y16625D01*
X17754Y16615D01*
X17615Y16597D01*
X17486Y16569D01*
X17366Y16542D01*
X17255Y16514D01*
X17162Y16477D01*
X17070Y16440D01*
X16996Y16403D01*
X16922Y16366D01*
X16866Y16338D01*
X16820Y16310D01*
X16783Y16283D01*
X16755Y16264D01*
X16746Y16246D01*
X16737D01*
X16663Y16172D01*
X16589Y16088D01*
X16478Y15931D01*
X16404Y15765D01*
X16349Y15608D01*
X16312Y15469D01*
X16302Y15367D01*
X16293Y15321D01*
Y15266D01*
X16302Y15155D01*
X16312Y15053D01*
X16358Y14868D01*
X16432Y14702D01*
X16515Y14563D01*
X16598Y14452D01*
X16663Y14369D01*
X16718Y14313D01*
X16728Y14295D01*
X16737D01*
X16820Y14221D01*
X16922Y14165D01*
X17125Y14064D01*
X17347Y13990D01*
X17551Y13944D01*
X17745Y13916D01*
X17828Y13907D01*
X17902D01*
X17957Y13897D01*
X18004D01*
X18031D01*
X18041D01*
X18207D01*
X18364Y13916D01*
X18503Y13934D01*
X18642Y13962D01*
X18762Y13990D01*
X18873Y14027D01*
X18974Y14054D01*
X19067Y14091D01*
X19141Y14128D01*
X19215Y14165D01*
X19270Y14202D01*
X19317Y14230D01*
X19353Y14258D01*
X19381Y14276D01*
X19390Y14286D01*
X19400Y14295D01*
X19474Y14369D01*
X19548Y14452D01*
X19659Y14609D01*
X19733Y14776D01*
X19788Y14923D01*
X19816Y15062D01*
X19834Y15164D01*
X19843Y15210D01*
Y15266D01*
X19834Y15376D01*
X19825Y15478D01*
X19779Y15672D01*
X19705Y15839D01*
X19622Y15977D01*
X19548Y16088D01*
X19474Y16172D01*
X19427Y16227D01*
X19409Y16236D01*
Y16246D01*
X19317Y16310D01*
X19224Y16375D01*
X19011Y16467D01*
X18789Y16542D01*
X18568Y16588D01*
X18374Y16615D01*
X18290Y16625D01*
X18216D01*
X18152Y16634D01*
D02*
G37*
G36*
X17625Y7610D02*
X17412Y7582D01*
X17218Y7527D01*
X17051Y7462D01*
X16922Y7388D01*
X16811Y7324D01*
X16728Y7259D01*
X16681Y7222D01*
X16663Y7203D01*
X16543Y7056D01*
X16450Y6908D01*
X16386Y6750D01*
X16339Y6603D01*
X16312Y6482D01*
X16302Y6381D01*
X16293Y6344D01*
Y6288D01*
X16302Y6177D01*
X16312Y6076D01*
X16367Y5881D01*
X16441Y5715D01*
X16524Y5576D01*
X16608Y5465D01*
X16681Y5382D01*
X16737Y5336D01*
X16746Y5317D01*
X16755D01*
X16876Y5234D01*
X17014Y5160D01*
X17153Y5114D01*
X17301Y5068D01*
X17421Y5040D01*
X17532Y5021D01*
X17569D01*
X17597Y5012D01*
X17615D01*
X17625D01*
Y7610D01*
D02*
G37*
G36*
X175149Y218501D02*
X173319D01*
X173152Y218491D01*
X173014Y218482D01*
X172903Y218473D01*
X172829Y218454D01*
X172773Y218445D01*
X172736Y218436D01*
X172727D01*
X172607Y218390D01*
X172505Y218334D01*
X172413Y218279D01*
X172330Y218214D01*
X172274Y218149D01*
X172228Y218103D01*
X172200Y218066D01*
X172191Y218057D01*
X172126Y217946D01*
X172071Y217835D01*
X172034Y217715D01*
X172015Y217613D01*
X171997Y217521D01*
X171987Y217437D01*
Y217391D01*
Y217382D01*
Y217373D01*
X172006Y217179D01*
X172043Y217012D01*
X172098Y216864D01*
X172163Y216744D01*
X172228Y216652D01*
X172283Y216578D01*
X172320Y216541D01*
X172339Y216522D01*
X172404Y216467D01*
X172487Y216420D01*
X172662Y216346D01*
X172857Y216291D01*
X173051Y216254D01*
X173226Y216236D01*
X173300Y216226D01*
X173365D01*
X173430Y216217D01*
X175149D01*
Y218501D01*
D02*
G37*
G36*
X169177Y218547D02*
X167161D01*
X166912Y218538D01*
X166699Y218501D01*
X166514Y218454D01*
X166375Y218399D01*
X166255Y218344D01*
X166181Y218297D01*
X166135Y218260D01*
X166117Y218251D01*
X166005Y218131D01*
X165922Y218011D01*
X165867Y217881D01*
X165821Y217770D01*
X165802Y217659D01*
X165793Y217576D01*
X165784Y217521D01*
Y217512D01*
Y217502D01*
X165793Y217391D01*
X165811Y217280D01*
X165839Y217188D01*
X165867Y217105D01*
X165904Y217031D01*
X165931Y216975D01*
X165950Y216938D01*
X165959Y216929D01*
X166024Y216836D01*
X166107Y216753D01*
X166190Y216689D01*
X166274Y216633D01*
X166348Y216596D01*
X166403Y216568D01*
X166440Y216550D01*
X166458Y216541D01*
X166588Y216504D01*
X166736Y216476D01*
X166884Y216458D01*
X167032Y216448D01*
X167161Y216439D01*
X167272Y216430D01*
X169177D01*
Y218547D01*
D02*
G37*
G36*
X160865Y218639D02*
X160782D01*
X160551Y218630D01*
X160329Y218593D01*
X160135Y218538D01*
X159968Y218482D01*
X159829Y218417D01*
X159774Y218390D01*
X159728Y218371D01*
X159682Y218344D01*
X159654Y218334D01*
X159644Y218316D01*
X159635D01*
X159460Y218186D01*
X159302Y218039D01*
X159164Y217890D01*
X159053Y217743D01*
X158970Y217613D01*
X158905Y217502D01*
X158886Y217465D01*
X158868Y217437D01*
X158859Y217419D01*
Y217410D01*
X158766Y217188D01*
X158701Y216947D01*
X158655Y216726D01*
X158628Y216513D01*
X158609Y216411D01*
X158600Y216328D01*
Y216245D01*
X158590Y216180D01*
Y216125D01*
Y216088D01*
Y216060D01*
Y216051D01*
X158600Y215829D01*
X158618Y215616D01*
X158646Y215413D01*
X158683Y215228D01*
X158738Y215061D01*
X158785Y214904D01*
X158840Y214756D01*
X158896Y214627D01*
X158960Y214516D01*
X159016Y214414D01*
X159062Y214331D01*
X159108Y214266D01*
X159155Y214211D01*
X159182Y214165D01*
X159201Y214146D01*
X159210Y214137D01*
X159330Y214017D01*
X159460Y213915D01*
X159589Y213832D01*
X159719Y213748D01*
X159848Y213684D01*
X159987Y213638D01*
X160107Y213591D01*
X160236Y213554D01*
X160347Y213527D01*
X160458Y213508D01*
X160551Y213490D01*
X160634Y213480D01*
X160699D01*
X160745Y213471D01*
X160791D01*
X160967Y213480D01*
X161133Y213499D01*
X161281Y213536D01*
X161429Y213573D01*
X161568Y213628D01*
X161697Y213684D01*
X161817Y213739D01*
X161928Y213804D01*
X162021Y213869D01*
X162104Y213924D01*
X162178Y213980D01*
X162243Y214035D01*
X162289Y214072D01*
X162326Y214109D01*
X162344Y214128D01*
X162353Y214137D01*
X162464Y214266D01*
X162557Y214405D01*
X162640Y214553D01*
X162714Y214701D01*
X162770Y214858D01*
X162825Y215006D01*
X162899Y215302D01*
X162917Y215431D01*
X162936Y215561D01*
X162955Y215672D01*
X162964Y215764D01*
X162973Y215847D01*
Y215912D01*
Y215949D01*
Y215958D01*
X162964Y216217D01*
X162945Y216458D01*
X162917Y216689D01*
X162871Y216892D01*
X162825Y217077D01*
X162770Y217243D01*
X162705Y217400D01*
X162649Y217530D01*
X162585Y217650D01*
X162529Y217752D01*
X162474Y217835D01*
X162428Y217900D01*
X162381Y217955D01*
X162353Y217992D01*
X162335Y218011D01*
X162326Y218020D01*
X162206Y218131D01*
X162076Y218223D01*
X161947Y218307D01*
X161808Y218381D01*
X161679Y218436D01*
X161549Y218491D01*
X161309Y218566D01*
X161198Y218584D01*
X161096Y218603D01*
X161013Y218621D01*
X160930Y218630D01*
X160865Y218639D01*
D02*
G37*
%LPD*%
D13*
X85500Y247000D02*
Y257000D01*
X80500Y252000D02*
X90500D01*
D14*
X123375Y118625D02*
X123750Y118250D01*
X122250Y119750D02*
X122625Y119375D01*
X123375Y118625D01*
X93000Y207750D02*
X142000D01*
X93000D02*
Y224750D01*
X142000Y207750D02*
X150250D01*
X185750D01*
Y260500D01*
X142000Y208000D02*
Y224625D01*
X141875Y224750D02*
X185625D01*
X123750Y118250D02*
X155750D01*
X122250Y119750D02*
Y192250D01*
X155750D01*
X118500Y106156D02*
Y124250D01*
X64500Y106156D02*
X118500D01*
X64500D02*
Y124250D01*
X29500Y220750D02*
Y224750D01*
X38750Y196750D02*
X78500D01*
Y224750D01*
X177500Y278750D02*
X185750D01*
X142000D02*
X150750D01*
X185750Y260500D02*
Y278750D01*
X78500Y224750D02*
Y278750D01*
X29500D02*
X78500D01*
X29500Y224750D02*
Y278750D01*
Y224750D02*
X78500D01*
X93000Y278750D02*
X142000D01*
Y224750D02*
Y278750D01*
X93000Y224750D02*
X142000D01*
X93000D02*
Y278750D01*
X199750Y118250D02*
Y192250D01*
X155750Y118250D02*
X199750D01*
X155750D02*
Y192250D01*
X199750D01*
X64500Y173250D02*
X118500D01*
X64500Y124250D02*
Y173250D01*
Y124250D02*
X118500D01*
Y173250D01*
X68000Y211497D02*
Y201500D01*
X63002D01*
X61336Y203166D01*
Y204832D01*
X63002Y206498D01*
X68000D01*
X63002D01*
X61336Y208165D01*
Y209831D01*
X63002Y211497D01*
X68000D01*
X58003Y201500D02*
Y208165D01*
X54671Y211497D01*
X51339Y208165D01*
Y201500D01*
Y206498D01*
X58003D01*
X48007Y211497D02*
X41342D01*
X44674D01*
Y201500D01*
X122585Y219831D02*
X124252Y221497D01*
X127584D01*
X129250Y219831D01*
Y218165D01*
X127584Y216498D01*
X124252D01*
X122585Y214832D01*
Y213166D01*
X124252Y211500D01*
X127584D01*
X129250Y213166D01*
X119253Y221497D02*
Y211500D01*
X115921Y214832D01*
X112589Y211500D01*
Y221497D01*
X44500Y217500D02*
X37836D01*
X74750Y217582D02*
X68085D01*
X71418Y220914D02*
Y214250D01*
X100500Y110750D02*
Y120747D01*
X95502D01*
X93835Y119081D01*
Y115748D01*
X95502Y114082D01*
X100500D01*
X90503Y120747D02*
Y110750D01*
X85505D01*
X83839Y112416D01*
Y114082D01*
X85505Y115748D01*
X90503D01*
X85505D01*
X83839Y117415D01*
Y119081D01*
X85505Y120747D01*
X90503D01*
X152250Y180747D02*
Y174082D01*
X148918Y170750D01*
X145585Y174082D01*
Y180747D01*
X135589Y179081D02*
X137255Y180747D01*
X140587D01*
X142253Y179081D01*
Y172416D01*
X140587Y170750D01*
X137255D01*
X135589Y172416D01*
X125592Y179081D02*
X127258Y180747D01*
X130590D01*
X132256Y179081D01*
Y172416D01*
X130590Y170750D01*
X127258D01*
X125592Y172416D01*
X151500Y160997D02*
Y151000D01*
X146502D01*
X144836Y152666D01*
Y159331D01*
X146502Y160997D01*
X151500D01*
X136505D02*
X139837D01*
X141503Y159331D01*
Y152666D01*
X139837Y151000D01*
X136505D01*
X134839Y152666D01*
Y159331D01*
X136505Y160997D01*
X145836Y133331D02*
X147502Y134997D01*
X150834D01*
X152500Y133331D01*
Y126666D01*
X150834Y125000D01*
X147502D01*
X145836Y126666D01*
Y129998D01*
X149168D01*
X142503Y125000D02*
Y134997D01*
X135839Y125000D01*
Y134997D01*
X132506D02*
Y125000D01*
X127508D01*
X125842Y126666D01*
Y133331D01*
X127508Y134997D01*
X132506D01*
M02*
