G04*
G04 #@! TF.GenerationSoftware,Altium Limited,Altium Designer,23.8.1 (32)*
G04*
G04 Layer_Color=1930808*
%FSLAX44Y44*%
%MOMM*%
G71*
G04*
G04 #@! TF.SameCoordinates,A6862DCD-3B86-4064-B5AB-42711134FE70*
G04*
G04*
G04 #@! TF.FilePolarity,Negative*
G04*
G01*
G75*
%ADD38R,1.5000X2.4000*%
%ADD39R,0.8121X0.8581*%
%ADD40R,1.6582X1.1055*%
%ADD41R,0.6600X0.6200*%
%ADD42R,0.9500X0.7000*%
%ADD43R,0.3500X0.7750*%
%ADD44R,1.5200X0.7100*%
%ADD45O,1.5000X0.5500*%
%ADD46O,1.3500X0.6500*%
%ADD47R,0.8500X0.9500*%
%ADD48R,0.9500X0.8500*%
%ADD49R,0.6000X0.5500*%
%ADD50R,0.9500X1.4500*%
%ADD51R,1.4500X0.9500*%
%ADD52R,0.7000X0.8500*%
%ADD53R,1.3000X0.6000*%
%ADD54R,1.4500X0.5000*%
%ADD55R,2.0000X1.6000*%
%ADD56R,0.9500X0.9500*%
%ADD57R,0.7500X0.7000*%
%ADD58R,1.0500X1.5000*%
%ADD59R,0.4500X0.9000*%
%ADD60R,0.5000X0.9000*%
%ADD61R,0.6200X0.6600*%
%ADD62R,1.4500X1.1500*%
%ADD63C,1.5500*%
%ADD64C,3.4032*%
%ADD65C,0.4000*%
G36*
X19500Y181502D02*
X19992Y181502D01*
X19993D01*
D01*
X20090Y181493D01*
X21056Y181301D01*
X21151Y181272D01*
X21151Y181272D01*
X22061Y180895D01*
X22148Y180849D01*
X22966Y180302D01*
X22966Y180301D01*
X23043Y180239D01*
X23739Y179543D01*
X23739Y179543D01*
X23802Y179466D01*
X24349Y178648D01*
X24349Y178647D01*
X24395Y178561D01*
X24772Y177651D01*
X24772Y177651D01*
X24801Y177556D01*
X24993Y176590D01*
X24993Y176590D01*
X25002Y176493D01*
Y176000D01*
X25002Y163000D01*
X24993Y162902D01*
X24964Y162808D01*
X24918Y162721D01*
X24855Y162645D01*
X24779Y162582D01*
X24692Y162536D01*
X24598Y162507D01*
X24500Y162498D01*
X5500D01*
X5402Y162507D01*
X5308Y162536D01*
X5221Y162582D01*
X5145Y162645D01*
X5082Y162721D01*
X5036Y162808D01*
X5007Y162902D01*
X4998Y163000D01*
Y176250D01*
Y176718D01*
X5007Y176816D01*
X5190Y177733D01*
X5218Y177828D01*
X5576Y178692D01*
X5623Y178779D01*
X6143Y179557D01*
X6205Y179633D01*
X6867Y180295D01*
X6943Y180357D01*
X7721Y180877D01*
X7808Y180924D01*
X7808Y180924D01*
X8672Y181282D01*
X8766Y181310D01*
X9684Y181493D01*
X9782Y181502D01*
X19500D01*
X19500Y181502D01*
D02*
G37*
G36*
X24348Y117493D02*
X24442Y117464D01*
X24529Y117418D01*
X24605Y117355D01*
X24668Y117279D01*
X24714Y117192D01*
X24743Y117098D01*
X24752Y117000D01*
Y103750D01*
Y103282D01*
X24743Y103184D01*
X24560Y102267D01*
X24532Y102172D01*
X24174Y101308D01*
X24127Y101221D01*
X23607Y100443D01*
X23545Y100367D01*
X22883Y99705D01*
X22807Y99643D01*
X22029Y99123D01*
X21942Y99076D01*
X21942Y99076D01*
X21078Y98718D01*
X20984Y98690D01*
X20066Y98507D01*
X19968Y98498D01*
X10250D01*
X10250Y98498D01*
X9758Y98498D01*
X9758D01*
D01*
X9660Y98507D01*
X8694Y98699D01*
X8599Y98728D01*
X8599Y98728D01*
X7689Y99105D01*
X7602Y99151D01*
X6784Y99698D01*
X6784Y99698D01*
X6708Y99761D01*
X6011Y100457D01*
X6011Y100457D01*
X5949Y100534D01*
X5401Y101352D01*
X5401Y101353D01*
X5355Y101439D01*
X4978Y102349D01*
X4978Y102349D01*
X4949Y102444D01*
X4757Y103410D01*
X4757Y103410D01*
X4748Y103507D01*
Y104000D01*
X4748Y117000D01*
X4757Y117098D01*
X4786Y117192D01*
X4832Y117279D01*
X4895Y117355D01*
X4971Y117418D01*
X5058Y117464D01*
X5152Y117493D01*
X5250Y117502D01*
X24250D01*
X24348Y117493D01*
D02*
G37*
G36*
X173299Y34498D02*
X173348Y34493D01*
X173420Y34471D01*
X173442Y34464D01*
X173529Y34418D01*
X173605Y34355D01*
X179605Y28355D01*
X179668Y28279D01*
X179714Y28192D01*
X179743Y28098D01*
X179752Y28000D01*
X179752Y28000D01*
Y22000D01*
X179752Y22000D01*
X179748Y21951D01*
X179743Y21902D01*
X179721Y21830D01*
X179714Y21808D01*
X179668Y21721D01*
X179605Y21645D01*
X173605Y15645D01*
X173529Y15582D01*
X173442Y15536D01*
X173348Y15507D01*
X173250Y15498D01*
X173250Y15498D01*
X151250D01*
X151250Y15498D01*
X151201Y15502D01*
X151152Y15507D01*
X151080Y15529D01*
X151058Y15536D01*
X150971Y15582D01*
X150895Y15645D01*
X145042Y21498D01*
X134250D01*
X134152Y21507D01*
X134058Y21536D01*
X133971Y21582D01*
X133895Y21645D01*
X133832Y21721D01*
X133786Y21808D01*
X133757Y21902D01*
X133748Y22000D01*
Y28000D01*
X133757Y28098D01*
X133786Y28192D01*
X133832Y28279D01*
X133895Y28355D01*
X133971Y28418D01*
X134058Y28464D01*
X134152Y28493D01*
X134250Y28502D01*
X145042D01*
X150895Y34355D01*
X150971Y34418D01*
X151058Y34464D01*
X151152Y34493D01*
X151250Y34502D01*
X151250Y34502D01*
X173250D01*
X173250Y34502D01*
X173299Y34498D01*
D02*
G37*
D38*
X86500Y24500D02*
D03*
X123500D02*
D03*
D39*
X123750Y142730D02*
D03*
Y154270D02*
D03*
D40*
X180000Y90764D02*
D03*
Y65236D02*
D03*
D41*
X161650Y205000D02*
D03*
X153850D02*
D03*
X160650Y164250D02*
D03*
X152850D02*
D03*
X39900Y233750D02*
D03*
X32100D02*
D03*
X79850Y191500D02*
D03*
X87650D02*
D03*
X79850Y183500D02*
D03*
X87650D02*
D03*
X172600Y275750D02*
D03*
X180400D02*
D03*
D42*
X135250Y194000D02*
D03*
Y184500D02*
D03*
Y175000D02*
D03*
X160750D02*
D03*
Y194000D02*
D03*
X135250Y153250D02*
D03*
Y143750D02*
D03*
Y134250D02*
D03*
X160750D02*
D03*
Y153250D02*
D03*
X32500Y263750D02*
D03*
Y254250D02*
D03*
Y244750D02*
D03*
X58000D02*
D03*
Y263750D02*
D03*
D43*
X98500Y218750D02*
D03*
X93500D02*
D03*
X88500D02*
D03*
Y200500D02*
D03*
X93500D02*
D03*
X98500D02*
D03*
D44*
X93500Y209625D02*
D03*
D45*
X122250Y68000D02*
D03*
Y74500D02*
D03*
Y81000D02*
D03*
Y87500D02*
D03*
X81250Y68000D02*
D03*
Y74500D02*
D03*
Y81000D02*
D03*
Y87500D02*
D03*
D46*
X138000Y264300D02*
D03*
Y251600D02*
D03*
Y238900D02*
D03*
Y226200D02*
D03*
X190500Y264300D02*
D03*
Y251600D02*
D03*
Y238900D02*
D03*
Y226200D02*
D03*
D47*
X152750Y121250D02*
D03*
X165250D02*
D03*
X183500Y134250D02*
D03*
X171000D02*
D03*
X143250Y121250D02*
D03*
X130750D02*
D03*
X64750Y204250D02*
D03*
X77250D02*
D03*
X112250Y100250D02*
D03*
X99750D02*
D03*
X134250D02*
D03*
X121750D02*
D03*
X183000Y184500D02*
D03*
X170500D02*
D03*
X145000Y207000D02*
D03*
X132500D02*
D03*
D48*
X124250Y196250D02*
D03*
Y183750D02*
D03*
X171750Y145000D02*
D03*
Y157500D02*
D03*
X112250Y154750D02*
D03*
Y142250D02*
D03*
X69750Y171000D02*
D03*
Y183500D02*
D03*
X67000Y76500D02*
D03*
Y89000D02*
D03*
X193750Y135500D02*
D03*
Y123000D02*
D03*
X44250Y22000D02*
D03*
Y9500D02*
D03*
X7750Y89250D02*
D03*
Y76750D02*
D03*
D49*
X103000Y191500D02*
D03*
X95500D02*
D03*
D50*
X21750Y271250D02*
D03*
X5250D02*
D03*
Y246750D02*
D03*
X21750D02*
D03*
D51*
X191250Y33250D02*
D03*
Y16750D02*
D03*
X139000Y86250D02*
D03*
Y69750D02*
D03*
D52*
X88500Y263000D02*
D03*
X79000D02*
D03*
X69500D02*
D03*
Y237500D02*
D03*
X79000D02*
D03*
X88500D02*
D03*
X101500Y237500D02*
D03*
X111000D02*
D03*
X120500D02*
D03*
Y263000D02*
D03*
X111000D02*
D03*
X101500D02*
D03*
D53*
X140250Y39500D02*
D03*
Y9500D02*
D03*
D54*
X41750Y153000D02*
D03*
Y146500D02*
D03*
Y140000D02*
D03*
Y133500D02*
D03*
Y127000D02*
D03*
D55*
X14750Y150000D02*
D03*
Y130000D02*
D03*
D56*
X57750Y153000D02*
D03*
X69750D02*
D03*
D57*
X55500Y204250D02*
D03*
Y189750D02*
D03*
D58*
X158500Y91500D02*
D03*
Y64500D02*
D03*
D59*
X24250Y5000D02*
D03*
Y26500D02*
D03*
X8250Y5000D02*
D03*
Y26500D02*
D03*
D60*
X69750Y142000D02*
D03*
Y120500D02*
D03*
D61*
X67000Y65150D02*
D03*
Y57350D02*
D03*
D62*
X58750Y8500D02*
D03*
Y23000D02*
D03*
D63*
X41750Y115000D02*
D03*
Y165000D02*
D03*
D64*
X21500Y204500D02*
D03*
D65*
X66500Y221750D02*
D03*
X123750Y134500D02*
D03*
X106250Y208750D02*
D03*
X52941Y129754D02*
D03*
X7500Y260500D02*
D03*
X94500Y80750D02*
D03*
X55500Y172500D02*
D03*
Y182000D02*
D03*
X138535Y216249D02*
D03*
X190250Y218750D02*
D03*
X129000Y216500D02*
D03*
X149000Y258000D02*
D03*
X194500Y194250D02*
D03*
X179455Y232295D02*
D03*
X54250Y224500D02*
D03*
X190500Y275750D02*
D03*
X106161Y177190D02*
D03*
X112250Y189000D02*
D03*
X122750Y168750D02*
D03*
X41250Y223750D02*
D03*
X146000Y164250D02*
D03*
X123750Y127960D02*
D03*
X179250Y246000D02*
D03*
X179353Y239283D02*
D03*
X103750Y218750D02*
D03*
X87750Y177000D02*
D03*
X95500Y185250D02*
D03*
X143500Y184500D02*
D03*
X151500Y198000D02*
D03*
X165250Y112750D02*
D03*
X75750Y120250D02*
D03*
X80500Y56000D02*
D03*
X69750Y8500D02*
D03*
X140250Y3500D02*
D03*
X195250Y6000D02*
D03*
X187250D02*
D03*
M02*
