M48
;Layer_Color=9474304
;FILE_FORMAT=4:4
METRIC
;TYPE=PLATED
T1F00S00C0.3000
T3F00S00C0.8500
T4F00S00C2.1000
%
T01
X00069750Y00008500
X00080500Y00056000
X00094500Y00080750
X00075750Y00120250
X00052941Y00129754
X00055500Y00172500
Y00182000
X00087750Y00177000
X00095500Y00185250
X00106161Y00177190
X00112250Y00189000
X00122750Y00168750
X00146000Y00164250
X00143500Y00184500
X00151500Y00198000
X00194500Y00194250
X00165250Y00112750
X00123750Y00127960
Y00134500
X00140250Y00003500
X00187250Y00006000
X00195250
X00190250Y00218750
X00179455Y00232295
X00179353Y00239283
X00179250Y00246000
X00190500Y00275750
X00149000Y00258000
X00138535Y00216249
X00129000Y00216500
X00103750Y00218750
X00106250Y00208750
X00066500Y00221750
X00054250Y00224500
X00041250Y00223750
X00007500Y00260500
T03
X00041750Y00115000
Y00165000
T04
X00021500Y00204500
M30
