G04*
G04 #@! TF.GenerationSoftware,Altium Limited,Altium Designer,23.8.1 (32)*
G04*
G04 Layer_Color=8242323*
%FSLAX44Y44*%
%MOMM*%
G71*
G04*
G04 #@! TF.SameCoordinates,A6862DCD-3B86-4064-B5AB-42711134FE70*
G04*
G04*
G04 #@! TF.FilePolarity,Negative*
G04*
G01*
G75*
%ADD63C,1.5500*%
%ADD64C,3.4032*%
%ADD65C,0.4000*%
%ADD74C,1.0000*%
G04:AMPARAMS|DCode=78|XSize=2.2032mm|YSize=5.2032mm|CornerRadius=0.6016mm|HoleSize=0mm|Usage=FLASHONLY|Rotation=180.000|XOffset=0mm|YOffset=0mm|HoleType=Round|Shape=RoundedRectangle|*
%AMROUNDEDRECTD78*
21,1,2.2032,4.0000,0,0,180.0*
21,1,1.0000,5.2032,0,0,180.0*
1,1,1.2032,-0.5000,2.0000*
1,1,1.2032,0.5000,2.0000*
1,1,1.2032,0.5000,-2.0000*
1,1,1.2032,-0.5000,-2.0000*
%
%ADD78ROUNDEDRECTD78*%
G04:AMPARAMS|DCode=79|XSize=2.2032mm|YSize=4.2032mm|CornerRadius=0.6016mm|HoleSize=0mm|Usage=FLASHONLY|Rotation=270.000|XOffset=0mm|YOffset=0mm|HoleType=Round|Shape=RoundedRectangle|*
%AMROUNDEDRECTD79*
21,1,2.2032,3.0000,0,0,270.0*
21,1,1.0000,4.2032,0,0,270.0*
1,1,1.2032,-1.5000,-0.5000*
1,1,1.2032,-1.5000,0.5000*
1,1,1.2032,1.5000,0.5000*
1,1,1.2032,1.5000,-0.5000*
%
%ADD79ROUNDEDRECTD79*%
G04:AMPARAMS|DCode=80|XSize=2.2032mm|YSize=5.2032mm|CornerRadius=0.6016mm|HoleSize=0mm|Usage=FLASHONLY|Rotation=270.000|XOffset=0mm|YOffset=0mm|HoleType=Round|Shape=RoundedRectangle|*
%AMROUNDEDRECTD80*
21,1,2.2032,4.0000,0,0,270.0*
21,1,1.0000,5.2032,0,0,270.0*
1,1,1.2032,-2.0000,-0.5000*
1,1,1.2032,-2.0000,0.5000*
1,1,1.2032,2.0000,0.5000*
1,1,1.2032,2.0000,-0.5000*
%
%ADD80ROUNDEDRECTD80*%
G36*
X19500Y181502D02*
X19992Y181502D01*
X19993D01*
D01*
X20090Y181493D01*
X21056Y181301D01*
X21151Y181272D01*
X21151Y181272D01*
X22061Y180895D01*
X22148Y180849D01*
X22966Y180302D01*
X22966Y180301D01*
X23043Y180239D01*
X23739Y179543D01*
X23739Y179543D01*
X23802Y179466D01*
X24349Y178648D01*
X24349Y178647D01*
X24395Y178561D01*
X24772Y177651D01*
X24772Y177651D01*
X24801Y177556D01*
X24993Y176590D01*
X24993Y176590D01*
X25002Y176493D01*
Y176000D01*
X25002Y163000D01*
X24993Y162902D01*
X24964Y162808D01*
X24918Y162721D01*
X24855Y162645D01*
X24779Y162582D01*
X24692Y162536D01*
X24598Y162507D01*
X24500Y162498D01*
X5500D01*
X5402Y162507D01*
X5308Y162536D01*
X5221Y162582D01*
X5145Y162645D01*
X5082Y162721D01*
X5036Y162808D01*
X5007Y162902D01*
X4998Y163000D01*
Y176250D01*
Y176718D01*
X5007Y176816D01*
X5190Y177733D01*
X5218Y177828D01*
X5576Y178692D01*
X5623Y178779D01*
X6143Y179557D01*
X6205Y179633D01*
X6867Y180295D01*
X6943Y180357D01*
X7721Y180877D01*
X7808Y180924D01*
X7808Y180924D01*
X8672Y181282D01*
X8766Y181310D01*
X9684Y181493D01*
X9782Y181502D01*
X19500D01*
X19500Y181502D01*
D02*
G37*
G36*
X24348Y117493D02*
X24442Y117464D01*
X24529Y117418D01*
X24605Y117355D01*
X24668Y117279D01*
X24714Y117192D01*
X24743Y117098D01*
X24752Y117000D01*
Y103750D01*
Y103282D01*
X24743Y103184D01*
X24560Y102267D01*
X24532Y102172D01*
X24174Y101308D01*
X24127Y101221D01*
X23607Y100443D01*
X23545Y100367D01*
X22883Y99705D01*
X22807Y99643D01*
X22029Y99123D01*
X21942Y99076D01*
X21942Y99076D01*
X21078Y98718D01*
X20984Y98690D01*
X20066Y98507D01*
X19968Y98498D01*
X10250D01*
X10250Y98498D01*
X9758Y98498D01*
X9758D01*
D01*
X9660Y98507D01*
X8694Y98699D01*
X8599Y98728D01*
X8599Y98728D01*
X7689Y99105D01*
X7602Y99151D01*
X6784Y99698D01*
X6784Y99698D01*
X6708Y99761D01*
X6011Y100457D01*
X6011Y100457D01*
X5949Y100534D01*
X5401Y101352D01*
X5401Y101353D01*
X5355Y101439D01*
X4978Y102349D01*
X4978Y102349D01*
X4949Y102444D01*
X4757Y103410D01*
X4757Y103410D01*
X4748Y103507D01*
Y104000D01*
X4748Y117000D01*
X4757Y117098D01*
X4786Y117192D01*
X4832Y117279D01*
X4895Y117355D01*
X4971Y117418D01*
X5058Y117464D01*
X5152Y117493D01*
X5250Y117502D01*
X24250D01*
X24348Y117493D01*
D02*
G37*
D63*
X41750Y115000D02*
D03*
Y165000D02*
D03*
D64*
X21500Y204500D02*
D03*
D65*
X66500Y221750D02*
D03*
X123750Y134500D02*
D03*
X106250Y208750D02*
D03*
X52941Y129754D02*
D03*
X7500Y260500D02*
D03*
X94500Y80750D02*
D03*
X55500Y172500D02*
D03*
Y182000D02*
D03*
X138535Y216249D02*
D03*
X190250Y218750D02*
D03*
X129000Y216500D02*
D03*
X149000Y258000D02*
D03*
X194500Y194250D02*
D03*
X179455Y232295D02*
D03*
X54250Y224500D02*
D03*
X190500Y275750D02*
D03*
X106161Y177190D02*
D03*
X112250Y189000D02*
D03*
X122750Y168750D02*
D03*
X41250Y223750D02*
D03*
X146000Y164250D02*
D03*
X123750Y127960D02*
D03*
X179250Y246000D02*
D03*
X179353Y239283D02*
D03*
X103750Y218750D02*
D03*
X87750Y177000D02*
D03*
X95500Y185250D02*
D03*
X143500Y184500D02*
D03*
X151500Y198000D02*
D03*
X165250Y112750D02*
D03*
X75750Y120250D02*
D03*
X80500Y56000D02*
D03*
X69750Y8500D02*
D03*
X140250Y3500D02*
D03*
X195250Y6000D02*
D03*
X187250D02*
D03*
D74*
X170350Y274950D02*
D03*
Y249550D02*
D03*
Y262250D02*
D03*
X157650Y274950D02*
D03*
Y249550D02*
D03*
Y262250D02*
D03*
D78*
X66500Y251750D02*
D03*
X41500D02*
D03*
X130000D02*
D03*
X105000D02*
D03*
D79*
X177750Y155250D02*
D03*
Y180250D02*
D03*
Y130250D02*
D03*
D80*
X91500Y161250D02*
D03*
Y136250D02*
D03*
M02*
